<svg version="1.1" id="Layer_1" xmlns="http://www.w3.org/2000/svg" xmlns:xlink="http://www.w3.org/1999/xlink" x="0px" y="0px"
	 width="100%" viewBox="0 0 1024 1024" enable-background="new 0 0 1024 1024" xml:space="preserve">
<path fill="#000000" opacity="1.000000" stroke="none" 
	d="
M407.995178,589.035645 
	C410.413239,585.215515 412.702606,581.740234 414.856903,578.183167 
	C416.002045,576.292358 417.298553,575.183655 419.704407,575.660278 
	C422.261536,576.166809 423.267212,577.574524 423.433197,580.126648 
	C423.656860,583.565979 424.225159,586.982849 424.782532,591.525696 
	C427.127625,587.935852 429.097687,585.172974 430.788757,582.248718 
	C432.058563,580.052795 433.643494,579.205811 436.125336,579.788818 
	C438.478577,580.341553 439.228546,581.807678 439.377228,584.103821 
	C439.842987,591.297241 440.483643,598.479309 441.106598,606.294006 
	C429.986115,604.327820 435.921326,595.587463 432.718109,590.289795 
	C430.828430,593.157898 428.876862,596.079956 426.969025,599.030212 
	C425.753204,600.910400 424.659760,602.599915 421.824982,601.657837 
	C419.200378,600.785645 418.724792,598.977417 418.712769,596.655762 
	C418.695587,593.332458 418.655853,590.006348 417.336304,585.953735 
	C415.111816,589.388733 413.091187,592.304871 411.287659,595.349548 
	C409.377991,598.573486 407.181702,598.830017 404.395020,596.462280 
	C404.456085,593.526306 406.740967,591.722839 407.995178,589.035645 
z"/>
<path fill="#000000" opacity="1.000000" stroke="none" 
	d="
M463.939758,401.561218 
	C463.572906,402.073700 463.371002,402.338684 463.173462,402.606934 
	C457.439453,410.394196 457.250000,410.380127 452.665131,402.031982 
	C452.290710,401.350281 451.757812,400.755615 450.687775,399.275909 
	C450.339081,402.268402 450.174286,404.350830 449.833862,406.404144 
	C449.530823,408.232422 449.164276,410.151031 446.604614,410.024078 
	C444.157471,409.902710 443.546722,408.270416 443.706451,406.238434 
	C444.237701,399.480408 444.537354,392.688354 446.017151,385.593109 
	C455.347229,385.793304 453.060150,395.616882 458.389221,399.281738 
	C461.360504,396.969543 463.309326,393.504761 465.569031,390.342529 
	C466.963684,388.390839 468.586761,387.138947 471.023529,387.915833 
	C473.607574,388.739746 472.513702,390.882294 472.392090,392.578033 
	C472.023132,397.723022 471.555389,402.860870 471.175354,408.005157 
	C471.019043,410.120758 470.815704,412.172058 467.972595,412.046173 
	C464.913879,411.910706 464.812836,409.749969 464.876129,407.411591 
	C464.937622,405.139740 466.242706,402.937134 465.242676,400.621216 
	C465.216064,400.559570 464.888733,400.538086 464.792358,400.613617 
	C464.537201,400.813507 464.331909,401.077026 463.939758,401.561218 
z"/>
<path fill="#000000" opacity="1.000000" stroke="none" 
	d="
M522.087891,422.007599 
	C524.094116,420.724487 525.264343,417.979279 527.820435,419.368134 
	C530.520752,420.835358 530.120544,423.364716 529.496521,425.966370 
	C528.587952,429.753998 527.969727,433.611267 526.965393,438.792145 
	C530.384338,436.070312 532.719543,434.280182 534.974854,432.394501 
	C536.850159,430.826538 538.216309,431.388550 539.570435,433.125885 
	C540.864502,434.786133 540.665649,436.098846 539.059387,437.384613 
	C534.257324,441.228546 529.488464,445.113953 524.692871,448.966125 
	C523.617065,449.830261 522.433044,450.561676 521.117798,449.450958 
	C519.782471,448.323303 519.101746,446.949005 519.331726,445.066132 
	C519.886047,440.528168 521.643188,436.163605 521.576355,430.655640 
	C518.944824,432.714600 516.867981,434.299683 514.836365,435.940765 
	C512.965881,437.451569 511.334076,437.587524 509.757599,435.476807 
	C508.226807,433.427307 509.266052,432.150238 510.857147,430.899475 
	C514.515930,428.023407 518.154358,425.121399 522.087891,422.007599 
z"/>
<path fill="#000000" opacity="1.000000" stroke="none" 
	d="
M349.792542,541.979980 
	C346.071594,533.056946 348.145844,525.926392 355.043945,523.019531 
	C360.596283,520.679688 366.509827,522.330139 369.871277,527.621521 
	C371.907990,530.827637 373.327606,534.427429 375.003418,537.860657 
	C376.226776,540.366943 374.772827,541.481201 372.701630,542.383301 
	C368.129089,544.374939 363.455353,546.193787 359.076935,548.554260 
	C354.972290,550.767212 352.632721,549.993042 351.396515,545.516357 
	C351.090912,544.409790 350.442261,543.397949 349.792542,541.979980 
M356.052338,541.744873 
	C360.040222,541.787292 363.035980,539.177856 366.493683,537.807556 
	C367.300415,537.487854 367.746277,536.670410 367.595917,535.777588 
	C367.135925,533.045593 365.794250,530.851624 363.396179,529.384155 
	C360.763977,527.773315 358.228180,528.395203 356.046234,530.142883 
	C354.014771,531.769958 352.952332,534.048340 353.722778,536.724731 
	C354.175751,538.298218 354.952881,539.778381 356.052338,541.744873 
z"/>
<path fill="#000000" opacity="1.000000" stroke="none" 
	d="
M541.867310,454.726562 
	C543.526428,454.236572 544.826477,453.922150 546.057861,453.434601 
	C549.008972,452.266205 550.775879,453.033661 551.551514,456.259796 
	C552.209473,458.996826 553.388245,461.611786 554.002930,464.355469 
	C555.617615,471.563110 552.287048,477.329590 545.405029,479.587341 
	C539.520935,481.517700 533.984680,478.730835 530.897339,472.284302 
	C525.410828,460.828217 525.807190,459.880951 537.686707,456.052246 
	C538.950867,455.644806 540.213623,455.233154 541.867310,454.726562 
M540.834351,473.542847 
	C541.654663,473.459442 542.522034,473.519775 543.287598,473.269196 
	C548.141479,471.680511 549.442444,468.645050 547.934814,463.499207 
	C546.277283,457.841339 542.961060,462.084564 540.365051,462.077698 
	C539.883728,462.076416 539.394226,462.300110 538.921204,462.457977 
	C533.835022,464.155029 533.167053,466.475037 536.499146,470.815826 
	C537.443970,472.046600 538.703918,472.818787 540.834351,473.542847 
z"/>
<path fill="#000000" opacity="1.000000" stroke="none" 
	d="
M490.967102,419.026764 
	C494.719513,413.959869 498.574646,408.964600 502.179504,403.794830 
	C503.893066,401.337402 505.422852,400.827332 507.802246,402.844055 
	C510.206146,404.881653 512.996887,406.490234 515.261047,408.659515 
	C519.809143,413.016937 519.562622,420.298950 514.212952,422.612762 
	C509.634674,424.592987 507.319061,426.980957 508.282288,432.125916 
	C503.862640,431.545563 502.638641,429.238953 502.729004,425.817505 
	C502.785980,423.659790 503.043488,421.310272 500.515289,420.238464 
	C498.295868,419.297546 497.921051,421.719849 496.656250,422.549133 
	C493.182068,424.827118 492.093964,422.196808 491.003357,419.328796 
	C490.999420,418.991577 490.967102,419.026764 490.967102,419.026764 
M507.084320,417.574829 
	C511.308624,417.369720 512.768616,415.747192 511.115448,412.924622 
	C510.211029,411.380524 508.916382,409.748199 506.966248,409.852417 
	C505.144470,409.949799 504.441223,411.829895 503.820496,413.296722 
	C502.792999,415.724823 505.059204,416.272705 507.084320,417.574829 
z"/>
<path fill="#000000" opacity="1.000000" stroke="none" 
	d="
M491.014008,418.972656 
	C484.248138,420.148071 479.173584,415.833923 473.558258,413.388489 
	C472.145538,412.773254 472.998077,411.009552 473.490967,409.774170 
	C475.585541,404.524445 477.714722,399.288300 479.769409,394.023041 
	C480.600098,391.894318 481.678589,390.535980 484.236328,391.591644 
	C488.077423,393.177002 491.959595,394.662750 495.805573,396.236633 
	C497.261200,396.832336 498.496368,397.592773 497.805084,399.585266 
	C497.077911,401.681213 495.621277,401.900269 493.839874,401.269348 
	C491.804596,400.548553 489.804382,399.727966 487.795105,398.935120 
	C486.631958,398.476135 485.471680,398.215454 484.788147,399.596527 
	C483.978180,401.233093 485.038544,402.065674 486.348480,402.665039 
	C488.011383,403.425964 489.718994,404.090973 491.369171,404.877411 
	C492.753784,405.537323 493.358063,406.587036 492.645813,408.124329 
	C492.006622,409.503937 491.091553,410.248932 489.489777,409.646301 
	C487.778625,409.002502 486.049194,408.407135 484.338806,407.761353 
	C482.932617,407.230408 481.727417,407.214508 481.046814,408.846954 
	C480.287384,410.668457 481.683075,411.245514 482.868317,411.771118 
	C484.840912,412.645844 486.864410,413.418640 488.904175,414.125488 
	C491.036438,414.864410 491.761719,416.220276 491.014679,418.690460 
	C490.967102,419.026764 490.999420,418.991577 491.014008,418.972656 
z"/>
<path fill="#000000" opacity="1.000000" stroke="none" 
	d="
M495.020813,579.046082 
	C490.891510,570.077148 494.112732,566.768738 500.920166,562.942627 
	C500.897522,562.621826 500.922852,562.284790 500.829895,561.984253 
	C500.154083,559.799194 496.263824,557.882935 500.111938,555.318359 
	C503.781769,552.872559 504.627838,556.516357 506.073792,558.427795 
	C509.285461,562.673340 512.364990,567.020020 515.443787,571.364197 
	C516.281311,572.545898 517.604919,574.013733 515.941711,575.293518 
	C512.703064,577.785461 509.462219,580.413391 505.845123,582.236938 
	C501.923065,584.214172 498.428345,582.353394 495.274780,579.193359 
	C495.000854,579.012329 495.020813,579.046082 495.020813,579.046082 
M500.178833,574.420044 
	C501.713806,576.530701 503.597260,577.532654 506.030609,575.943237 
	C507.808044,574.782227 508.092346,573.007874 507.214081,571.194763 
	C506.299286,569.306274 504.764709,567.890076 502.528961,568.498474 
	C499.899200,569.214172 498.922516,571.108276 500.178833,574.420044 
z"/>
<path fill="#000000" opacity="1.000000" stroke="none" 
	d="
M392.918396,564.926514 
	C388.658325,569.159973 384.672211,573.173706 380.609650,577.108459 
	C379.041718,578.627075 377.639740,581.165649 374.936523,578.468689 
	C372.309174,575.847351 374.491241,574.395386 376.186340,572.805115 
	C376.670685,572.350708 377.246399,571.993713 377.661774,571.681213 
	C377.304077,569.540527 375.493286,569.406677 374.497864,568.445496 
	C370.093872,564.193115 369.879639,558.476929 374.120636,554.335144 
	C378.352875,550.201965 384.229218,550.320557 388.260162,554.755615 
	C389.914459,556.575806 391.188232,558.672974 393.341095,560.103516 
	C395.385925,561.462158 394.743011,563.202820 392.918396,564.926514 
M380.246277,557.848145 
	C377.851776,559.276428 376.469421,561.159668 377.943512,563.963257 
	C378.829041,565.647522 380.501312,566.037292 382.225372,565.557312 
	C384.327454,564.972168 385.713593,563.525146 385.617554,561.262085 
	C385.493378,558.336121 383.598267,557.359680 380.246277,557.848145 
z"/>
<path fill="#000000" opacity="1.000000" stroke="none" 
	d="
M393.977570,419.952820 
	C396.470825,427.610321 395.735748,429.828186 388.946350,435.114502 
	C389.002441,435.427795 388.993439,435.778931 389.139130,436.045532 
	C390.333588,438.231598 394.185730,440.063507 390.378601,442.974365 
	C386.876709,445.651825 385.855225,441.689850 384.213745,440.135559 
	C380.725250,436.832428 377.593719,433.156006 374.201324,429.746552 
	C371.585815,427.117859 370.829468,424.851654 374.721771,422.744446 
	C375.553497,422.294159 376.255310,421.519165 376.875153,420.775543 
	C382.635956,413.864014 386.833282,413.567017 393.731140,419.817566 
	C394.003448,419.989197 393.977570,419.952820 393.977570,419.952820 
M381.705383,423.184143 
	C379.782654,425.597809 380.597839,427.581055 382.857971,429.075317 
	C384.690155,430.286591 386.690552,430.327942 388.297882,428.581909 
	C389.589417,427.178955 389.662903,425.529266 388.431244,424.043091 
	C386.732056,421.992706 384.855682,420.320129 381.705383,423.184143 
z"/>
<path fill="#000000" opacity="1.000000" stroke="none" 
	d="
M494.987793,578.998047 
	C495.763489,586.713562 493.482574,590.681580 487.327362,592.598083 
	C484.737244,593.404480 482.389709,593.067139 480.192688,591.628906 
	C478.048645,590.225281 475.994049,588.353088 476.130249,585.740051 
	C476.251068,583.422852 479.087128,583.472534 480.749756,582.534851 
	C482.595184,581.494080 484.896667,581.355713 486.724548,579.514160 
	C484.173859,577.790222 482.265839,578.834534 480.591766,580.549927 
	C478.984467,582.196838 477.328522,582.321289 475.877136,580.676270 
	C474.316345,578.907288 475.905853,577.612549 477.054321,576.469727 
	C482.363739,571.186340 489.649292,572.097168 494.758545,578.825195 
	C495.020813,579.046082 495.000854,579.012329 494.987793,578.998047 
z"/>
<path fill="#000000" opacity="1.000000" stroke="none" 
	d="
M367.546783,469.248413 
	C367.549835,472.344604 366.966400,474.880829 365.347748,477.138611 
	C362.487946,481.127686 357.861084,482.372162 353.460571,480.281464 
	C349.180389,478.247925 346.882782,473.565552 347.988525,469.129639 
	C349.223419,464.175415 353.463593,460.864563 358.084869,461.185272 
	C360.525116,461.354614 361.851135,462.424408 361.314087,465.012054 
	C360.719818,467.875244 360.035126,470.719696 359.246033,474.208008 
	C362.007233,472.902069 362.666656,471.095306 362.355560,469.092041 
	C362.042175,467.073730 362.534180,465.703217 364.520599,465.344177 
	C367.314362,464.839142 367.154266,467.139191 367.546783,469.248413 
z"/>
<path fill="#000000" opacity="1.000000" stroke="none" 
	d="
M392.743195,583.327698 
	C390.532928,581.584961 389.388397,579.580139 388.940918,577.236328 
	C388.453247,574.682129 388.708862,571.990173 390.731720,570.326721 
	C392.854858,568.580811 394.695129,570.957031 396.532776,571.772522 
	C398.432953,572.615662 399.626770,574.803955 402.527588,574.847107 
	C402.122528,571.978394 400.127625,571.024902 397.936157,570.481201 
	C395.742767,569.937073 394.592865,568.628662 395.348755,566.573608 
	C396.075989,564.596375 398.005005,564.985168 399.650146,565.466431 
	C404.256531,566.813904 407.737244,569.491699 408.829132,574.335632 
	C409.678162,578.102173 407.990112,581.287842 405.074707,583.494385 
	C401.222015,586.410278 397.071655,586.262756 392.743195,583.327698 
z"/>
<path fill="#000000" opacity="1.000000" stroke="none" 
	d="
M347.912323,505.147339 
	C349.615509,503.182465 351.398315,501.869110 353.629791,501.729279 
	C357.185394,501.506531 356.581665,504.619568 357.160034,506.652802 
	C357.727051,508.646088 358.053802,510.707733 358.728455,513.879028 
	C360.322754,510.616333 359.775726,508.683350 358.781586,506.774109 
	C357.806671,504.901642 358.447784,503.435974 360.198120,502.689941 
	C361.988068,501.927063 362.881836,503.439850 363.694000,504.700195 
	C366.439484,508.960785 365.710876,515.778381 362.201141,518.925476 
	C358.925568,521.862549 353.699127,522.168579 350.230377,519.627380 
	C346.593048,516.962708 343.857208,510.184631 347.912323,505.147339 
z"/>
<path fill="#000000" opacity="1.000000" stroke="none" 
	d="
M394.019562,420.004578 
	C390.080627,410.591125 394.590118,402.813538 403.473755,403.714569 
	C405.528259,403.923004 407.314484,404.725983 408.873169,406.013885 
	C411.491364,408.177185 411.903656,410.264587 408.566162,412.190918 
	C406.043610,413.646851 403.566864,415.182159 400.369781,417.102570 
	C403.829407,418.158997 405.668396,416.854553 407.213196,415.163696 
	C408.705048,413.530853 410.332977,412.944305 411.858643,414.625366 
	C413.315094,416.230103 411.917755,417.682770 410.839142,418.952057 
	C406.397736,424.178436 400.440491,424.689850 394.282532,420.158020 
	C393.977570,419.952820 394.003448,419.989197 394.019562,420.004578 
z"/>
<path fill="#000000" opacity="1.000000" stroke="none" 
	d="
M549.489868,499.493164 
	C543.108398,502.802338 542.019714,502.180115 541.505981,495.757874 
	C541.327148,493.521210 542.181396,491.165955 540.904419,488.861847 
	C536.229370,491.504272 543.255737,497.653656 537.488159,499.764099 
	C533.084961,496.270752 532.365601,490.053802 535.813232,485.322021 
	C538.598755,481.499023 544.323486,480.292969 548.197327,482.712982 
	C553.022339,485.727203 554.683167,491.691345 551.972534,496.584595 
	C551.423706,497.575378 550.525146,498.372467 549.489868,499.493164 
z"/>
<path fill="#000000" opacity="1.000000" stroke="none" 
	d="
M546.329224,530.093750 
	C545.334106,537.355713 541.875000,541.084778 536.582947,541.023987 
	C532.509155,540.977112 531.237366,539.202393 532.654846,535.400757 
	C533.616394,532.821777 534.706665,530.290833 536.078552,526.900024 
	C532.418274,528.196594 531.543396,530.336731 531.509338,532.877014 
	C531.480652,535.012207 530.367554,536.085510 528.497925,535.975342 
	C526.223694,535.841309 526.301086,533.763123 526.279541,532.176331 
	C526.205566,526.735046 530.653992,521.436157 535.639038,520.851501 
	C540.782349,520.248291 544.759583,523.535828 546.329224,530.093750 
z"/>
<path fill="#000000" opacity="1.000000" stroke="none" 
	d="
M377.546326,435.468781 
	C381.375458,439.924225 381.051117,444.308441 378.261444,448.617523 
	C375.876892,452.300720 372.309357,453.952850 367.960327,453.136322 
	C363.806488,452.356476 361.190155,449.619965 360.287689,445.540070 
	C359.269043,440.934662 361.456757,437.352844 364.912292,434.724915 
	C368.987244,431.625854 373.259491,431.960663 377.546326,435.468781 
M367.143188,440.020599 
	C365.548218,442.289764 365.762451,444.431824 367.969513,446.056061 
	C369.719879,447.344177 371.715546,447.293884 373.418732,445.793457 
	C374.858765,444.524841 375.030975,442.907623 373.966705,441.351044 
	C372.398651,439.057739 370.367004,437.995758 367.143188,440.020599 
z"/>
<path fill="#000000" opacity="1.000000" stroke="none" 
	d="
M529.057007,561.885376 
	C524.710205,567.256958 520.562256,568.624756 515.958069,566.470337 
	C510.907898,564.107239 508.943146,559.146851 511.045746,554.068237 
	C513.361084,548.475769 519.335815,545.527649 524.293884,547.531189 
	C529.899353,549.796326 531.685303,554.855896 529.057007,561.885376 
M520.611938,561.421509 
	C523.832642,560.818848 525.370728,559.040344 524.141663,555.782593 
	C523.430969,553.898804 521.780701,553.033813 519.726501,553.254333 
	C518.069336,553.432251 516.909912,554.417419 516.531433,555.991150 
	C515.844604,558.846375 517.568176,560.291321 520.611938,561.421509 
z"/>
<path fill="#000000" opacity="1.000000" stroke="none" 
	d="
M543.369751,504.368347 
	C546.644226,503.801422 549.404785,502.270325 552.869385,503.111145 
	C553.255859,511.363525 545.398560,508.359192 542.017273,511.409576 
	C543.186951,515.910767 552.746399,515.057129 549.224854,523.252747 
	C543.370117,520.569641 537.931702,517.411865 533.568665,513.013123 
	C531.469482,510.896820 532.142517,507.512878 535.716431,506.276398 
	C538.063477,505.464355 540.553467,505.065735 543.369751,504.368347 
z"/>
<path fill="#000000" opacity="1.000000" stroke="none" 
	d="
M364.164551,491.053558 
	C364.058594,493.012756 363.718353,494.510498 362.112579,495.151398 
	C356.762268,497.286957 351.457581,499.578186 345.253571,501.059357 
	C343.334595,492.154419 352.147797,494.647278 354.883484,490.961334 
	C352.834808,487.072357 343.870392,488.920502 346.307404,479.970978 
	C352.324554,484.093628 360.127563,483.838013 364.164551,491.053558 
z"/>
<path fill="#000000" opacity="1.000000" stroke="none" 
	d="
M357.291962,457.829285 
	C354.374542,456.489471 351.797852,455.316071 349.218964,454.147614 
	C347.177521,453.222687 346.604095,451.863037 347.606812,449.732971 
	C348.665833,447.483246 350.077728,447.517303 352.063599,448.451294 
	C357.787903,451.143494 363.566071,453.721375 369.330170,456.328552 
	C371.135956,457.145294 372.574890,458.004181 371.522217,460.450592 
	C370.471893,462.891510 368.931519,463.154022 366.733490,462.116364 
	C363.722534,460.694885 360.667755,459.366211 357.291962,457.829285 
z"/>
<path fill="#000000" opacity="1.000000" stroke="none" 
	d="
M523.943665,537.933594 
	C530.861816,540.927185 536.642639,545.200256 542.801331,548.832642 
	C544.518860,549.845703 545.088501,551.084656 543.944946,552.948792 
	C542.785278,554.839233 541.457642,555.460693 539.427185,554.203125 
	C533.906799,550.783813 528.283447,547.526062 522.834290,543.998230 
	C519.301880,541.711182 521.077515,539.688660 523.943665,537.933594 
z"/>
<path fill="#000000" opacity="1.000000" stroke="none" 
	d="
M421.918518,396.996338 
	C422.306091,398.268372 422.707214,399.475800 421.757965,400.072998 
	C417.094452,403.006989 418.762238,406.716797 420.197845,410.541870 
	C420.915131,412.453094 422.219330,414.692505 419.033356,415.882294 
	C415.766022,417.102539 414.982971,414.781158 414.175598,412.525635 
	C413.002289,409.247864 411.837921,405.965576 410.759735,402.655884 
	C410.461670,401.740845 410.189209,400.646332 410.415802,399.765594 
	C410.957214,397.661285 419.465576,395.449371 421.918518,396.996338 
z"/>
<path fill="#000000" opacity="1.000000" stroke="none" 
	d="
M467.585205,588.007874 
	C467.150391,585.494263 466.717529,583.373718 466.373169,581.238892 
	C466.074127,579.384949 467.146149,578.420898 468.790192,578.062134 
	C470.454529,577.699036 471.858917,578.191711 472.274536,579.995605 
	C473.318390,584.526123 474.367157,589.061340 475.187347,593.635315 
	C475.622437,596.061584 473.756165,596.902649 471.793884,596.930847 
	C470.104767,596.955200 468.564575,596.952393 467.041443,597.896973 
	C465.819550,598.654663 464.400299,598.710388 463.779327,596.985413 
	C463.269348,595.568665 462.753387,593.996582 464.520172,593.020752 
	C466.379700,591.993713 467.859314,590.790649 467.585205,588.007874 
z"/>
<path fill="#000000" opacity="1.000000" stroke="none" 
	d="
M460.262268,584.682373 
	C458.898132,587.368591 457.012146,587.894531 454.826599,586.529785 
	C453.471558,585.683716 452.985809,584.187317 453.517273,582.613647 
	C454.110291,580.857849 455.500336,579.851990 457.299591,580.051758 
	C459.709839,580.319336 460.538177,582.027100 460.262268,584.682373 
z"/>
<path fill="#000000" opacity="1.000000" stroke="none" 
	d="
M433.491455,408.251038 
	C433.889343,411.124268 432.541870,412.413971 430.239899,412.621124 
	C428.558685,412.772430 427.410767,411.683655 426.923553,410.112122 
	C426.427277,408.511353 426.851501,407.058350 428.388580,406.263092 
	C430.518860,405.160980 432.241791,405.725952 433.491455,408.251038 
z"/>
</svg>