<?xml version="1.0" standalone="no"?>
<!DOCTYPE svg PUBLIC "-//W3C//DTD SVG 20010904//EN"
 "http://www.w3.org/TR/2001/REC-SVG-20010904/DTD/svg10.dtd">
<svg version="1.0" xmlns="http://www.w3.org/2000/svg"
 width="300.000000pt" height="300.000000pt" viewBox="0 0 300.000000 300.000000"
 preserveAspectRatio="xMidYMid meet">
<metadata>
Created by potrace 1.10, written by Peter Selinger 2001-2011
</metadata>
<g transform="translate(0.000000,300.000000) scale(0.100000,-0.100000)"
fill="#000000" stroke="none">
<path d="M1376 2533 c-4 -53 -11 -104 -16 -113 -7 -13 -3 -16 19 -18 25 -2 29
2 35 35 3 21 6 52 6 68 1 29 2 28 26 -18 14 -27 23 -55 21 -61 -4 -9 2 -11 17
-9 12 3 37 26 56 55 19 27 36 46 38 40 1 -5 -1 -34 -6 -65 -8 -51 -7 -57 10
-63 11 -3 22 -3 25 0 4 3 11 56 16 117 6 67 13 105 18 97 7 -10 9 -9 9 5 0 14
-5 16 -27 11 -29 -7 -56 -35 -95 -96 -13 -21 -26 -38 -29 -38 -3 0 -21 33 -40
73 -24 52 -40 73 -55 75 -20 3 -22 -3 -28 -95z"/>
<path d="M1676 2475 c-21 -52 -35 -98 -32 -103 3 -5 37 -21 77 -37 58 -23 73
-25 80 -14 14 23 12 25 -46 44 -54 19 -65 34 -47 63 7 10 18 9 54 -7 45 -19
45 -19 62 0 18 22 21 33 6 24 -6 -4 -31 1 -55 11 -39 14 -44 20 -39 38 4 12 8
22 9 24 1 1 26 -6 54 -18 53 -20 71 -19 71 4 0 12 -120 66 -146 66 -6 0 -27
-43 -48 -95z"/>
<path d="M1123 2523 c-13 -13 -29 -20 -41 -16 -11 2 -22 0 -26 -5 -10 -17 47
-160 66 -165 11 -3 15 -1 11 6 -4 6 0 8 10 4 14 -5 13 0 -4 39 -25 59 -24 79
3 98 17 12 20 19 11 37 l-9 23 -21 -21z"/>
<path d="M1944 2482 c-5 -4 -39 -47 -73 -95 -61 -84 -63 -88 -45 -102 17 -13
21 -12 41 12 21 26 23 26 41 10 13 -12 17 -26 14 -52 -3 -27 0 -40 14 -50 29
-22 34 -18 34 25 0 34 3 40 20 40 30 0 70 44 70 77 0 32 -20 59 -72 98 -21 15
-35 31 -32 36 6 11 3 11 -12 1z m66 -129 c0 -35 -31 -45 -69 -22 -31 18 -32
21 -19 42 8 12 18 28 22 34 11 20 66 -25 66 -54z"/>
<path d="M934 2444 c-32 -15 -54 -50 -54 -84 0 -32 48 -80 81 -80 38 0 85 24
99 50 16 30 -15 38 -44 11 -22 -21 -60 -28 -70 -13 -2 4 19 21 47 36 29 16 53
30 55 31 9 7 -15 38 -39 50 -34 18 -36 18 -75 -1z m61 -34 c5 -9 -50 -50 -67
-50 -14 0 -9 23 9 42 17 20 48 24 58 8z"/>
<path d="M1215 2441 c3 -2 0 -10 -5 -16 -15 -18 -1 -45 24 -45 12 0 27 9 34
21 8 12 9 18 3 15 -5 -4 -12 2 -15 12 -3 10 -15 18 -26 18 -10 0 -17 -2 -15
-5z"/>
<path d="M755 2315 c-14 -13 -25 -29 -25 -35 0 -6 -4 -9 -9 -6 -5 3 -14 -1
-21 -9 -7 -8 -16 -12 -21 -9 -5 3 -9 0 -9 -5 0 -6 7 -11 15 -11 7 0 18 -6 22
-14 4 -8 37 -44 72 -81 60 -62 65 -65 81 -50 18 16 17 18 -13 46 -25 22 -28
28 -14 29 10 0 29 11 42 25 33 32 32 75 -1 114 -33 40 -83 43 -119 6z m85 -35
c24 -24 25 -38 3 -62 -20 -22 -41 -23 -65 -1 -22 20 -23 41 -1 65 21 23 38 23
63 -2z"/>
<path d="M2134 2313 c-6 -10 -43 -43 -82 -73 -74 -57 -82 -69 -58 -89 11 -9
24 -3 61 29 26 23 49 39 51 37 2 -2 -4 -40 -13 -85 -14 -66 -15 -83 -4 -96 12
-14 20 -11 70 29 124 98 116 89 100 113 -15 21 -16 21 -67 -24 -58 -51 -60
-48 -37 51 9 37 13 76 8 88 -4 12 -6 25 -5 30 4 14 -13 7 -24 -10z"/>
<path d="M634 2169 c-11 -6 -28 -23 -37 -39 -32 -53 -17 -103 38 -126 41 -17
73 -7 104 32 30 38 27 79 -8 115 -30 30 -60 35 -97 18z m70 -55 c19 -18 20
-28 6 -55 -14 -25 -52 -24 -75 1 -40 44 27 97 69 54z"/>
<path d="M460 2020 c-6 -12 -10 -23 -8 -24 2 -1 50 -23 108 -48 104 -46 105
-47 116 -26 11 20 6 24 -85 65 -53 25 -101 47 -108 49 -6 3 -17 -4 -23 -16z"/>
<path d="M2251 1959 c-52 -16 -96 -30 -98 -32 -4 -5 31 -107 47 -137 15 -29
74 -53 111 -45 43 10 78 42 85 81 7 39 -24 165 -41 163 -5 0 -52 -14 -104 -30z
m100 -69 c10 -33 9 -43 -5 -64 -33 -51 -99 -45 -122 10 -21 51 -18 58 39 75
74 23 75 23 88 -21z"/>
<path d="M497 1890 c-50 -40 -43 -116 13 -145 64 -33 117 4 130 90 5 36 4 42
-9 40 -9 -2 -19 -4 -23 -4 -5 -1 -8 -16 -8 -34 0 -34 -15 -57 -37 -57 -9 0 -9
10 2 48 22 70 20 82 -14 82 -15 0 -40 -9 -54 -20z m49 -37 c-3 -10 -8 -30 -12
-46 -5 -22 -9 -25 -20 -16 -28 23 -11 79 24 79 8 0 11 -7 8 -17z"/>
<path d="M440 1710 c0 -21 10 -29 55 -49 31 -13 53 -26 50 -30 -3 -3 -29 -12
-58 -21 -44 -13 -52 -20 -55 -42 l-3 -26 88 32 c76 27 88 35 91 56 2 22 -7 29
-83 65 l-85 41 0 -26z"/>
<path d="M2243 1696 c-23 -20 -28 -32 -28 -69 0 -50 20 -83 40 -67 10 8 10 18
2 41 -12 31 -3 59 21 67 8 2 12 -16 12 -63 l0 -67 28 6 c15 4 37 18 50 32 31
36 29 79 -7 115 -37 36 -79 38 -118 5z m102 -66 c0 -25 -5 -36 -17 -38 -15 -3
-18 4 -18 38 0 34 3 41 18 38 12 -2 17 -13 17 -38z"/>
<path d="M2390 1532 c0 -6 -37 -19 -81 -28 -135 -29 -141 -52 -29 -123 78 -49
80 -50 80 -26 0 19 -12 32 -50 56 -27 17 -50 32 -50 34 0 2 26 9 58 15 52 11
60 15 70 43 6 17 9 33 7 36 -3 2 -5 -1 -5 -7z"/>
<path d="M476 1509 c-35 -28 -37 -95 -3 -127 53 -50 147 -12 147 60 0 36 -19
79 -36 85 -16 5 -26 -27 -13 -43 13 -16 8 -66 -8 -71 -6 -3 -14 13 -18 39 -13
87 -22 94 -69 57z m48 -71 c5 -29 4 -38 -7 -38 -33 0 -50 53 -25 78 16 16 24
5 32 -40z"/>
<path d="M2191 1334 c-28 -20 -54 -78 -46 -104 8 -25 44 -15 38 10 -5 18 42
78 53 67 3 -3 -6 -32 -20 -66 l-25 -61 26 -6 c40 -10 76 7 96 47 22 45 8 93
-34 114 -36 19 -59 19 -88 -1z m93 -60 c3 -9 6 -19 6 -24 0 -13 -30 -40 -45
-40 -11 0 -10 8 2 40 17 43 27 49 37 24z"/>
<path d="M525 1322 c-40 -19 -65 -54 -65 -93 0 -16 45 -136 55 -147 3 -4 188
77 196 86 10 11 -52 132 -75 147 -37 24 -69 26 -111 7z m80 -38 c14 -6 61 -83
53 -88 -37 -19 -121 -56 -123 -54 -23 28 -33 91 -17 114 18 26 57 39 87 28z"/>
<path d="M2099 1208 c-13 -49 -8 -56 87 -113 52 -32 94 -62 94 -67 0 -21 23 0
26 23 2 22 -10 32 -93 82 -52 31 -99 57 -104 57 -6 0 -7 5 -4 10 3 6 4 10 1
10 -3 0 -6 -1 -7 -2z"/>
<path d="M2031 1079 c-48 -45 -49 -103 -4 -139 36 -28 77 -25 115 9 25 22 32
36 32 66 0 72 -91 113 -143 64z m81 -36 c24 -22 23 -60 -3 -73 -43 -24 -92 43
-57 78 17 17 38 15 60 -5z"/>
<path d="M709 1031 c-16 -17 -29 -40 -29 -54 0 -30 33 -73 62 -83 20 -6 19 -7
-11 -31 -31 -24 -31 -26 -15 -45 17 -18 20 -17 101 64 63 63 80 85 71 95 -6 7
-17 13 -24 13 -8 0 -14 6 -14 13 0 8 -10 23 -23 35 -34 32 -82 29 -118 -7z
m92 -21 c37 -20 14 -90 -30 -90 -40 0 -54 49 -24 82 19 21 27 22 54 8z"/>
<path d="M1883 1020 c-1 -8 7 -26 17 -40 18 -23 18 -24 -14 -39 -17 -9 -37
-29 -45 -46 -13 -26 -12 -33 5 -64 10 -20 32 -42 48 -50 25 -12 33 -11 62 2
18 9 35 25 39 36 3 11 12 18 19 15 7 -3 18 2 25 9 9 12 7 21 -12 43 -13 16
-42 56 -65 88 -41 58 -77 79 -79 46z m85 -149 c7 -45 -35 -66 -70 -34 -24 22
-23 49 4 67 19 13 25 14 43 2 11 -7 21 -23 23 -35z"/>
<path d="M910 910 c0 -15 7 -20 25 -20 15 0 31 -10 41 -25 25 -39 10 -41 -46
-6 -58 35 -66 37 -74 15 -21 -55 25 -124 84 -124 37 0 90 47 90 79 0 33 -20
67 -50 84 -39 24 -70 22 -70 -3z m54 -112 c-8 -12 -49 -9 -62 4 -7 7 -12 20
-12 30 0 17 3 17 39 -4 22 -12 37 -26 35 -30z"/>
<path d="M1720 853 c-19 -7 -60 -44 -60 -54 0 -16 36 -13 52 3 20 20 45 23 67
9 14 -9 0 -18 -86 -52 -28 -10 -29 -20 -4 -50 14 -18 29 -24 59 -24 55 0 92
34 92 84 -1 66 -59 106 -120 84z m80 -97 c0 -20 -26 -38 -51 -34 -33 5 -33 22
-2 35 39 15 53 15 53 -1z"/>
<path d="M1053 743 c-34 -54 -59 -101 -57 -105 3 -5 13 -8 23 -8 12 0 34 25
62 73 l44 72 5 -84 c5 -76 7 -85 28 -92 20 -8 27 -2 58 46 19 30 37 62 40 70
13 34 24 -1 24 -78 0 -81 0 -82 26 -82 l25 0 -7 115 c-3 63 -7 115 -8 116 0 1
-13 4 -28 8 -25 6 -30 1 -65 -59 -21 -35 -41 -65 -45 -65 -5 0 -8 34 -8 75 0
72 -1 76 -26 85 -14 6 -27 10 -28 10 -1 0 -30 -44 -63 -97z"/>
<path d="M1580 792 c0 -9 4 -32 9 -50 12 -40 6 -59 -20 -67 -20 -7 -26 -39 -9
-50 5 -3 18 3 30 15 11 11 20 15 20 9 0 -6 10 -9 23 -7 26 4 26 1 8 96 -13 65
-16 72 -38 72 -15 0 -23 -6 -23 -18z"/>
<path d="M1457 778 c-6 -18 11 -48 27 -48 20 0 37 25 30 44 -7 19 -50 22 -57
4z"/>
</g>
</svg>
