<svg version="1.1" id="Layer_1" xmlns="http://www.w3.org/2000/svg" xmlns:xlink="http://www.w3.org/1999/xlink" x="0px" y="0px"
	 width="100%" viewBox="0 0 1024 1024" enable-background="new 0 0 1024 1024" xml:space="preserve">
<path fill="#000000" opacity="1.000000" stroke="none" 
	d="
M198.025803,454.036224 
	C199.358047,452.559052 199.311264,451.299438 197.227768,450.790741 
	C194.726990,450.180176 192.551025,448.810638 190.319672,447.885040 
	C181.718491,444.317108 173.637711,439.901184 165.626022,435.257965 
	C163.278625,433.897552 160.604568,432.845581 158.219101,431.891724 
	C154.518768,430.412140 149.536346,429.649200 147.119583,436.025543 
	C144.610657,430.649109 147.178238,427.942596 150.263550,426.004944 
	C152.931244,424.329529 153.463882,422.829926 152.278992,419.945831 
	C149.483032,413.140289 150.263885,405.863525 150.143936,398.746674 
	C150.088531,395.459503 148.953415,392.977234 146.523453,390.913391 
	C139.029373,384.548584 139.451462,383.970825 146.535583,375.588318 
	C150.361237,371.061493 154.068588,366.337646 158.140076,361.954773 
	C163.161545,356.549286 162.761276,355.824493 156.196655,352.266235 
	C151.848495,349.909332 150.079681,344.637573 151.905594,339.109741 
	C152.271515,339.504456 152.794006,339.800232 152.841736,340.159149 
	C153.754272,347.020355 155.887100,348.948730 162.911148,350.737915 
	C167.527466,351.913788 171.855774,354.120728 175.873917,356.738495 
	C178.396164,358.381714 181.511795,359.058136 184.077255,360.019623 
	C192.680649,363.244080 200.176605,368.741302 209.122330,371.382782 
	C212.109222,372.264771 216.360458,372.677338 218.977692,375.943665 
	C220.294250,377.586700 223.048874,376.642578 226.789932,376.430389 
	C217.325668,372.062653 209.203812,368.238525 201.018570,364.555237 
	C189.488998,359.367035 177.815704,354.497803 166.661911,348.495605 
	C164.038620,347.083923 161.797897,345.104370 158.914627,344.017944 
	C156.982620,343.289917 156.364487,341.196259 157.582550,339.174835 
	C160.373245,338.805115 159.929810,342.608551 162.807816,342.331421 
	C163.859619,339.961761 166.117050,337.527008 162.904129,334.861938 
	C161.216507,333.462006 160.558685,331.945862 161.900024,330.154114 
	C163.344803,328.224243 165.207870,329.183777 166.881424,329.924286 
	C177.990952,334.840027 189.095001,339.768280 200.186951,344.723602 
	C210.668198,349.406036 221.082779,354.242340 231.631195,358.767273 
	C235.300491,360.341309 235.855042,362.216522 234.180115,365.700348 
	C232.620682,368.943939 230.207901,372.072906 231.292023,376.196503 
	C232.305496,371.791779 237.422440,369.707397 236.872971,364.094482 
	C236.409729,359.362457 234.379730,356.792114 230.472092,355.078308 
	C225.246033,352.786285 220.013123,350.503937 214.719025,348.377014 
	C213.277924,347.798035 212.414597,347.179047 212.625656,345.544159 
	C213.876968,344.212463 215.117126,345.230743 216.285843,345.639252 
	C234.907623,352.147949 247.588211,344.458740 257.615540,331.311096 
	C259.843750,328.389557 261.961853,324.195251 262.087311,319.328857 
	C262.173004,316.005188 265.446381,312.636414 264.664612,308.523621 
	C264.298859,306.599243 264.955078,304.889221 262.572754,303.093323 
	C260.439636,301.485260 261.658112,297.577820 262.157166,294.298279 
	C268.268738,295.962891 270.467743,301.711151 274.702209,305.008942 
	C278.743652,308.156372 281.133545,313.415863 286.223999,315.696594 
	C284.688904,311.534149 281.648254,308.622803 278.690735,305.638672 
	C264.041199,290.857330 250.086029,275.426880 236.050339,260.070526 
	C234.216324,258.063934 234.622467,256.537628 236.477020,255.048447 
	C239.685089,252.472473 242.812897,249.810745 245.194336,246.865585 
	C247.460495,246.835526 247.790176,248.924454 249.659195,249.383621 
	C250.978531,240.606567 256.159821,234.339890 263.434967,229.830612 
	C269.161896,226.280975 275.369019,223.846603 282.387512,225.084518 
	C297.362610,227.725800 309.517822,241.630341 309.851166,256.492767 
	C310.156219,270.094696 299.820404,281.571106 283.311523,285.283539 
	C288.021942,290.338287 292.296600,295.305023 296.990356,299.837769 
	C300.512421,303.239014 300.492340,305.742645 296.538269,308.635406 
	C294.159180,310.375946 292.163727,312.640839 289.820343,314.834381 
	C290.420441,315.237396 290.915039,315.783264 291.138947,315.688660 
	C296.575104,313.391571 299.501099,308.284882 303.460632,304.354828 
	C304.332062,303.489899 303.619781,301.528870 302.121155,300.512421 
	C298.610657,298.131409 295.867188,294.939819 293.114227,291.759674 
	C290.418762,288.645966 290.806335,286.447205 294.669525,284.784210 
	C303.078644,281.164215 307.222717,274.493408 310.369446,266.096039 
	C312.603577,260.133942 312.961670,254.611069 312.184998,248.656433 
	C312.007141,247.292801 312.760742,245.730225 313.814423,246.222382 
	C316.816681,247.624634 320.273438,248.209076 322.893036,249.966537 
	C324.970856,251.360535 323.337341,254.218262 322.425171,256.394775 
	C320.887360,260.064148 320.118317,264.075653 317.382629,267.197052 
	C315.913574,268.873230 316.013306,270.769135 317.688049,272.053925 
	C324.376526,277.184845 327.557404,283.535217 325.243958,292.029053 
	C325.163391,292.324829 325.217194,292.747528 325.377838,293.005585 
	C330.058014,300.523621 326.935577,308.204010 325.876038,315.840118 
	C325.406738,319.222443 323.869476,322.115845 322.049774,324.969025 
	C318.240082,330.942413 318.269318,336.481384 321.971832,343.097900 
	C326.160370,350.583038 330.765289,358.735413 326.167633,368.093597 
	C324.631592,371.220062 323.064178,372.124878 319.525665,370.559174 
	C314.533722,368.350342 309.194916,366.899048 303.953400,365.290161 
	C300.620544,364.267151 298.061066,365.817230 296.198730,368.469116 
	C292.281891,374.046570 287.031830,378.188324 281.352386,381.660034 
	C272.881775,386.837799 269.850464,395.079437 269.217041,403.995422 
	C268.347198,416.240509 267.483887,428.519989 268.843475,440.885101 
	C269.902313,450.514526 272.471008,459.327820 277.066528,467.863800 
	C284.793396,482.216125 292.556305,496.777954 297.426270,512.241882 
	C300.715576,522.686707 303.151123,533.680725 305.146545,544.639526 
	C307.021149,554.934998 309.902527,564.451111 318.894684,571.970703 
	C328.873138,580.315063 338.182312,589.628723 346.505493,599.937683 
	C354.148956,609.404663 361.869965,619.029419 373.079102,625.246460 
	C378.880859,628.464294 383.396271,634.100952 388.269257,638.873108 
	C398.271698,648.668640 410.596405,654.937683 422.377808,662.114868 
	C431.030029,667.385742 440.602631,670.974976 448.576202,677.532227 
	C457.877625,685.181519 468.763519,690.589355 479.540192,695.681702 
	C488.033417,699.695190 497.041962,702.462891 507.297760,698.128784 
	C515.633179,694.606323 525.148376,696.966797 533.852417,699.223511 
	C551.627991,703.832397 568.341980,702.657776 585.156616,694.383118 
	C595.627625,689.230286 607.162903,685.284729 619.021362,684.606201 
	C625.158813,684.255005 632.270020,685.094727 635.136597,692.741699 
	C635.648621,694.107666 636.637390,695.208801 638.177063,694.441162 
	C639.955200,693.554565 639.051697,692.050903 638.285217,691.057800 
	C635.957642,688.041748 635.484558,684.275269 634.381470,680.871216 
	C632.552246,675.226562 637.258972,671.702576 640.791626,668.978638 
	C647.961060,663.450378 650.930359,656.291077 650.899719,647.788208 
	C650.878601,641.914917 651.758118,636.168396 652.263733,630.381104 
	C652.967285,622.328003 663.699768,617.291260 673.902466,620.285583 
	C678.081848,621.512207 682.340698,622.369690 686.028992,620.378357 
	C689.371216,618.573914 692.839905,617.087036 696.201050,615.359619 
	C696.496033,615.208008 696.751831,614.980652 697.046021,614.827209 
	C699.738770,613.422485 703.872986,613.643066 704.482483,609.786621 
	C705.285767,604.704407 705.709351,599.491394 702.544617,594.798157 
	C699.724304,590.615540 697.216858,586.289001 698.027283,580.903137 
	C698.101318,580.410828 697.941345,579.828857 698.148438,579.419128 
	C702.156189,571.490173 701.194153,562.052795 705.808777,554.294617 
	C706.820801,552.593323 707.683228,550.707458 708.152222,548.793396 
	C713.215759,528.128601 723.779053,509.184204 726.816711,487.823059 
	C727.735657,481.360718 732.291687,476.875000 739.626038,475.535980 
	C743.746338,474.783691 748.804321,473.542084 748.984802,467.514801 
	C749.078247,464.391602 748.656494,461.470520 745.292419,460.011688 
	C741.898987,458.540100 738.771179,458.838318 736.069641,461.479706 
	C735.248230,462.282867 734.555481,463.253235 733.954224,464.238770 
	C732.636414,466.398895 732.414856,470.091553 728.913330,469.504822 
	C725.321411,468.902954 725.481873,465.121887 725.384949,462.551331 
	C725.167175,456.779358 723.643555,451.403168 721.761536,446.055817 
	C720.527344,442.549042 720.732666,438.962952 720.574341,435.299927 
	C720.116455,424.709106 717.883179,414.712952 713.316528,404.662079 
	C707.484253,391.825531 697.256409,387.040985 685.729248,381.528229 
	C676.199768,376.970886 666.009521,375.727386 656.528625,371.931305 
	C636.954041,364.093964 621.681152,351.647491 614.095276,331.061371 
	C609.675232,319.066345 604.901550,307.156921 598.876831,295.849518 
	C594.054443,286.798615 587.136597,279.633911 578.955627,273.289337 
	C569.558594,266.001709 559.414185,260.069611 549.143188,254.286255 
	C542.363281,250.468704 534.625916,249.169281 527.073059,248.369125 
	C518.847046,247.497650 510.495453,246.842087 502.167175,247.781418 
	C497.471191,248.311050 492.840424,247.341614 488.241455,246.757401 
	C483.562653,246.163010 479.314636,246.774994 475.174805,248.866257 
	C467.792084,252.595703 460.600098,252.648102 453.299866,248.318710 
	C447.300171,244.760605 441.281036,241.151352 434.486359,239.140976 
	C432.747955,238.626617 431.024689,237.693985 430.096497,236.000336 
	C426.205139,228.899582 422.719788,221.493011 414.714142,217.892212 
	C416.027222,215.897095 417.257324,216.807297 418.214111,216.978333 
	C427.606110,218.657288 434.846039,212.827209 434.653564,203.410583 
	C434.582642,199.940643 435.616821,196.373428 432.163177,193.265152 
	C428.799316,190.237671 425.236847,191.456421 421.783630,191.368835 
	C412.635651,191.136795 407.017090,198.811798 409.300812,207.687607 
	C409.848846,209.817566 413.809570,210.929413 410.913361,214.336044 
	C408.647186,212.582031 406.468231,210.556686 403.378235,210.153412 
	C399.449585,209.640717 398.941376,212.920639 397.424957,215.256577 
	C394.395721,215.076508 392.964142,214.063400 392.555328,210.551727 
	C392.075195,206.427063 390.238464,202.285095 388.595032,198.577072 
	C386.466919,193.775543 386.518738,189.191193 386.937683,184.542114 
	C387.227905,181.321609 390.155884,179.462814 393.428711,178.704651 
	C399.851074,177.216873 401.935486,171.352249 397.796265,166.029312 
	C396.734741,164.664230 396.767181,163.301224 396.683502,161.842789 
	C396.392609,156.773056 393.436249,154.329025 388.966949,156.626236 
	C384.443451,158.951294 380.061768,161.919769 376.372009,166.032898 
	C371.472076,164.560120 366.302155,164.917542 361.565887,167.081223 
	C356.100677,169.577942 354.934814,174.405762 358.047211,180.890839 
	C360.944458,186.927551 362.729248,193.267685 364.640930,199.638290 
	C365.648163,202.994949 366.902649,206.513626 368.561340,209.619553 
	C370.909821,214.017105 369.565826,219.402191 372.932343,223.485886 
	C373.755920,224.484909 373.676483,226.666397 372.804932,228.300064 
	C368.715515,229.030609 366.231476,227.900131 366.828796,223.217758 
	C367.449280,218.353561 364.790466,217.187958 360.582703,217.206757 
	C357.770660,217.219330 354.688110,218.216492 351.380554,215.513168 
	C354.772217,213.793747 357.670013,212.307114 360.358185,210.508255 
	C363.624939,208.322220 364.530273,206.011719 362.469391,202.632538 
	C358.021729,195.339920 352.536163,188.295013 344.558411,185.695358 
	C336.640991,183.115341 328.195068,182.930420 319.564026,186.955399 
	C314.379395,189.373199 310.022766,192.103653 306.455231,196.110046 
	C300.522064,202.773056 298.319855,210.989807 298.117737,219.789581 
	C298.072235,221.770508 298.111023,223.753372 298.111023,226.067657 
	C294.677399,226.319611 291.395752,227.381210 288.839508,224.167862 
	C288.646576,223.925293 288.286774,223.669922 288.002045,223.667038 
	C279.052307,223.575943 269.633728,220.701889 261.753754,227.447067 
	C258.197632,230.491074 253.347519,231.762100 250.994781,236.630890 
	C249.704971,239.300095 249.598984,242.004257 248.705185,244.892563 
	C245.533264,245.330246 242.335129,245.771545 239.190384,246.205475 
	C238.978439,245.580597 238.705048,245.100586 238.800629,245.010040 
	C247.356842,236.904495 252.846130,225.655014 264.340515,220.508865 
	C267.543121,219.075043 268.750031,215.708466 270.369537,212.463104 
	C274.776917,203.631180 283.012054,198.314148 291.122833,193.124466 
	C301.931854,194.895081 307.848755,185.327988 316.507660,182.049194 
	C320.345673,180.595871 325.375519,179.427643 325.208832,173.461945 
	C325.198608,173.096085 325.748322,172.558167 326.161865,172.360458 
	C331.979614,169.579285 337.629822,166.479401 343.337769,163.503036 
	C345.943665,162.144211 347.912506,164.771408 347.591827,167.848190 
	C347.467896,169.037323 346.716644,170.161057 346.208008,171.421570 
	C346.943573,171.478180 347.452820,171.639557 347.546417,171.507141 
	C353.089600,163.664566 361.556610,162.245346 370.177979,160.515594 
	C374.590179,159.630341 378.631409,156.843307 382.802429,154.837036 
	C384.297333,154.117996 385.585754,152.862564 387.133118,152.380157 
	C391.685455,150.960892 397.100891,151.017929 398.085114,144.476013 
	C398.216431,143.603149 400.079681,142.509476 401.252045,142.353561 
	C408.282745,141.418457 415.160217,138.897095 422.476532,140.918640 
	C430.974518,143.266693 439.634766,142.539215 448.256989,141.412491 
	C449.735748,141.219254 451.246033,140.950012 452.715851,141.060516 
	C458.941528,141.528549 461.194702,140.280945 463.590332,134.547409 
	C464.422882,132.554764 464.846313,130.390564 465.686462,128.401825 
	C467.618408,123.828712 470.042389,119.772072 475.823364,119.444534 
	C479.090393,119.259430 481.843018,118.243225 483.729156,115.102165 
	C485.306122,112.476082 488.290649,111.703796 491.209656,111.912186 
	C495.661163,112.229980 499.766968,111.281883 503.839478,109.604866 
	C509.519073,107.266052 515.024170,107.597748 520.745728,110.174416 
	C533.445618,115.893707 545.076172,113.674919 555.278625,104.278282 
	C558.182312,101.603989 561.645325,99.934753 565.156799,98.522484 
	C572.959717,95.384201 576.430603,88.456284 580.327454,81.911530 
	C581.834229,79.380829 581.058838,76.632050 579.244263,74.437706 
	C573.602295,67.615013 573.095032,58.289272 567.807739,51.265984 
	C566.449768,49.462177 566.690735,46.990341 568.546448,45.310936 
	C571.405029,42.724045 574.792786,41.257523 578.651733,42.484592 
	C582.932373,43.845753 587.249390,45.254517 591.284119,47.196220 
	C602.779419,52.728344 614.908569,56.269691 627.283081,59.006031 
	C639.766968,61.766567 650.351257,69.776489 662.782288,72.198021 
	C681.634033,75.870300 689.784912,90.268021 697.404358,105.139786 
	C703.384399,116.811638 712.758423,123.248283 724.833679,127.399864 
	C735.981873,131.232742 746.882019,136.517883 756.240967,143.463181 
	C764.363464,149.490906 770.449341,158.314117 777.242798,166.070419 
	C789.411743,179.964172 801.375244,194.037918 813.542969,207.932770 
	C821.297302,216.787766 826.511597,227.156067 832.269409,237.294250 
	C840.800964,252.316406 845.850647,268.383453 848.887207,285.173218 
	C851.244324,298.206055 856.219727,310.395264 860.004089,322.972046 
	C864.715698,338.630737 866.894165,354.504333 864.801514,371.187805 
	C862.784485,387.268982 863.378357,403.555786 866.266907,419.791779 
	C869.275513,436.702850 870.171692,453.816071 865.262268,470.788605 
	C863.204346,477.903107 860.904358,484.777496 856.720276,490.906616 
	C854.385559,494.326660 853.631775,497.654816 855.610413,501.639252 
	C857.847900,506.145020 857.708862,511.276276 856.651672,515.892090 
	C853.664001,528.936218 856.116028,541.706360 857.584167,554.558289 
	C858.766541,564.907959 858.847290,574.742004 850.125793,582.707397 
	C846.498596,586.020081 844.386292,590.824097 843.807678,596.029785 
	C843.434448,599.388000 842.138367,602.503479 840.195435,605.260071 
	C836.133667,611.022766 833.107117,617.309814 830.473145,623.811401 
	C830.410645,623.965759 830.373718,624.145203 830.270264,624.266296 
	C824.128479,631.457397 821.031128,640.183533 817.473694,648.755615 
	C815.357056,653.855713 811.364319,655.135620 806.012207,653.551270 
	C802.970520,652.650940 801.239014,653.877991 799.875366,656.307495 
	C798.403442,658.929749 796.842896,661.459106 793.404968,662.563354 
	C792.613647,659.238403 793.326965,654.588440 789.561646,653.566345 
	C781.802917,651.460449 776.955566,644.729065 769.581543,642.092041 
	C765.693848,640.701721 762.928345,637.265259 758.851562,635.565918 
	C754.940308,633.935608 750.572632,631.752991 748.463928,627.269836 
	C751.691650,626.828979 755.079468,625.570496 757.119934,627.483643 
	C761.622375,631.704956 767.115234,630.484802 770.927063,628.652344 
	C774.712769,626.832397 779.059937,626.317566 782.776794,623.182434 
	C786.377502,620.145325 790.177185,618.412048 789.985107,613.036133 
	C790.009277,613.008667 790.062195,612.958069 790.380859,612.933350 
	C794.627869,609.905640 797.322876,606.425293 796.738953,600.979004 
	C796.333130,597.192566 796.318604,593.287415 796.749390,589.505920 
	C797.407043,583.733398 795.189331,579.282166 791.281128,575.455505 
	C790.544678,574.734375 790.091370,574.035767 789.616211,573.152771 
	C786.199402,566.803284 779.771851,563.292419 773.635498,562.768799 
	C764.900940,562.023499 755.302673,559.635498 747.221191,566.320557 
	C743.886230,569.079285 740.308716,571.506104 738.239990,575.477966 
	C735.593506,580.558777 732.516357,585.127319 731.275635,591.218689 
	C730.286499,596.074890 729.520142,600.814758 729.371338,605.717896 
	C729.272705,608.965515 730.561584,612.201111 733.383240,613.171875 
	C736.489014,614.240234 740.351135,614.786255 743.427734,612.601807 
	C744.845825,611.594910 746.080933,609.948181 747.512024,611.606812 
	C748.851013,613.158630 748.739380,615.456116 747.160034,617.057678 
	C745.009949,619.238098 744.501221,621.170166 747.159851,623.295593 
	C748.344482,624.242676 748.325806,625.604736 747.979736,626.969238 
	C745.130859,626.735596 742.618958,626.055359 740.475464,623.789795 
	C737.434570,620.575684 732.778931,619.848450 729.264282,617.260864 
	C728.764526,616.892883 727.932434,617.003357 727.375061,616.682434 
	C720.374329,612.651062 720.141846,612.872498 715.828735,619.792603 
	C714.265503,622.300598 713.082703,625.005554 711.311584,627.445068 
	C708.137817,631.816650 713.018860,635.155701 715.032959,636.137390 
	C722.568909,639.810791 728.404053,645.873047 736.179443,649.470032 
	C742.528198,652.406982 748.940613,656.730957 755.214233,660.370667 
	C763.065918,664.925903 770.105164,670.932068 778.596924,674.302246 
	C780.785278,675.170776 783.490479,674.737000 786.121094,674.912354 
	C786.684631,681.942871 787.214783,689.004639 787.828125,696.059204 
	C788.278320,701.237427 789.316650,706.247131 791.884766,710.885803 
	C793.572388,713.934082 793.148804,717.390564 793.043579,720.703552 
	C792.885864,725.668335 794.271606,730.160706 798.075928,733.257324 
	C803.003174,737.268066 804.855042,742.382141 805.663513,748.403992 
	C806.500427,754.638123 806.171875,760.750916 804.644531,766.745972 
	C803.446228,771.449524 800.160828,774.695374 796.052551,777.340393 
	C786.887695,783.240967 776.808105,787.266113 766.961182,791.718994 
	C754.779480,797.227356 743.175537,803.774658 731.778259,810.655579 
	C727.148743,813.450684 723.249939,817.556396 719.305420,821.362976 
	C712.921631,827.523376 705.420288,831.119690 696.626709,831.798401 
	C682.344482,832.900940 668.150757,833.258911 653.839539,830.840088 
	C640.227356,828.539368 626.263672,829.565369 612.517273,828.645081 
	C600.681519,827.852783 588.882202,825.157959 577.683167,820.750488 
	C575.421448,819.860352 573.695984,817.871094 573.559998,815.442200 
	C573.297241,810.747192 571.271545,808.384155 565.258118,809.283447 
	C570.063904,803.820251 569.922058,797.682312 568.324280,792.860291 
	C566.012756,785.883850 567.583252,777.996155 562.977539,771.714722 
	C562.797913,771.469727 562.697205,771.051514 562.762390,770.759216 
	C564.429016,763.288940 558.860596,756.877441 559.680481,749.513550 
	C560.004211,746.606140 558.495850,745.227051 555.531799,745.289795 
	C552.033813,745.363770 548.531921,745.242371 545.033142,745.297668 
	C539.405273,745.386536 535.739868,749.434692 536.872803,754.933594 
	C538.396790,762.330383 540.015930,769.663879 540.968262,777.196655 
	C541.706299,783.034180 539.940735,787.410278 536.639465,791.689148 
	C535.585754,793.054871 534.091492,793.290955 532.592346,793.154602 
	C528.040405,792.740845 526.731506,795.162598 526.912598,799.201904 
	C527.038330,802.006042 526.936768,804.820435 526.603943,807.650818 
	C525.519043,803.598877 526.222229,799.402893 525.439392,795.274719 
	C524.791321,791.857056 524.748840,788.777771 522.013123,785.937317 
	C519.654663,783.488464 521.617004,781.588074 527.143982,781.156372 
	C526.910034,778.866821 525.263367,778.689697 523.596436,778.744751 
	C519.672913,778.874268 519.086121,776.826599 520.068604,773.607849 
	C521.467041,769.026550 521.000427,764.292297 520.525452,759.712463 
	C519.864441,753.339233 510.078674,748.748901 503.400513,751.614197 
	C493.271423,755.960144 492.974243,769.213318 498.893280,774.929321 
	C501.071899,777.033264 503.434906,776.649719 505.848572,776.722351 
	C513.766968,776.960754 516.047791,780.232910 512.797485,787.582825 
	C511.250732,791.080627 509.176697,794.287781 508.904572,798.264282 
	C508.797516,799.828552 507.687286,801.345154 506.156769,801.513550 
	C497.720093,802.442017 491.304932,809.152893 482.713684,809.571655 
	C481.057648,809.652283 479.422241,810.098022 477.765717,810.238647 
	C470.760803,810.833191 463.702850,811.260559 459.103058,818.691101 
	C458.075409,807.352417 455.461456,796.835083 455.820374,785.250549 
	C455.173126,786.585632 454.860748,787.229980 454.313751,788.358215 
	C453.330627,779.483276 453.762177,771.044922 453.718628,762.624817 
	C453.677277,754.620850 451.235260,751.867920 443.121124,751.388306 
	C440.408264,751.228027 438.019684,750.984070 435.730621,749.124573 
	C433.678680,747.457581 431.031464,748.086548 429.562500,750.206299 
	C428.279144,752.058228 426.402588,753.754211 425.635132,755.579285 
	C422.579132,762.846924 417.735199,768.696411 413.039948,774.857971 
	C411.131805,777.362061 410.385010,781.140198 406.858765,784.292603 
	C405.867188,779.157959 402.648956,775.505310 402.703278,770.544556 
	C402.774384,764.045959 401.961731,757.445618 402.849274,751.072937 
	C403.802490,744.229065 399.602142,740.937256 395.044434,739.049316 
	C391.014862,737.380127 385.988556,737.892151 381.411835,736.729919 
	C384.841400,740.105408 389.310883,740.691711 393.488617,741.525696 
	C397.605835,742.347656 399.231018,744.032715 399.610443,748.363037 
	C400.758362,761.463867 401.939117,774.553406 402.309174,787.704712 
	C402.373718,789.998474 402.311401,792.320007 403.981995,794.872498 
	C406.748962,790.639099 409.379974,786.672485 411.951416,782.667603 
	C417.618988,773.840454 423.337952,765.044556 428.865356,756.130066 
	C430.995850,752.694031 433.370636,751.290649 437.488953,752.701294 
	C451.584442,757.529663 450.275940,752.949341 451.325470,768.238159 
	C452.201630,781.000854 454.391357,793.679077 453.987457,806.523926 
	C453.922089,808.603210 454.560272,810.868225 452.373352,813.292908 
	C447.659241,807.616821 448.138977,796.505188 436.540955,797.850769 
	C435.015076,791.601318 434.625732,785.081055 433.687256,778.347961 
	C427.513367,787.759583 421.326996,797.163025 415.172028,806.587036 
	C412.807281,810.207703 410.627197,813.953613 408.162994,817.503601 
	C404.187286,823.231201 399.010162,823.898804 393.700287,819.148315 
	C390.328552,816.131958 387.981079,812.542480 387.673645,807.568298 
	C386.811432,793.617859 385.508789,779.694580 384.287964,764.625671 
	C381.080872,769.471497 378.271271,773.587402 375.594147,777.787720 
	C369.423523,787.469238 363.205841,797.124023 357.246826,806.935120 
	C355.237030,810.244080 352.954010,811.007324 349.363068,809.976379 
	C337.400909,806.542175 337.480377,806.679199 344.305634,795.988892 
	C355.491211,778.469055 366.539337,760.861328 377.616516,743.272522 
	C378.390961,742.042786 379.282806,740.791077 379.109009,738.676514 
	C373.122894,742.542114 371.577271,749.259949 367.856262,754.315674 
	C362.279480,761.892883 357.025635,769.779297 352.421112,777.976074 
	C349.217163,783.679688 345.515381,789.054871 342.320587,794.750549 
	C340.610809,797.798706 338.246979,800.472534 336.363525,803.433105 
	C334.813141,805.870117 334.476593,807.546448 338.274780,808.818909 
	C343.270050,810.492371 348.016571,812.508972 353.454803,811.787048 
	C355.296875,811.542480 356.999695,811.636475 358.099121,809.634521 
	C360.766602,804.777283 366.003540,801.486389 366.762634,795.449707 
	C366.893982,794.405029 367.314880,793.598083 368.329071,793.081787 
	C373.095764,790.655212 374.782349,785.622925 376.212494,781.349182 
	C377.397308,777.808411 379.112732,776.287598 381.882324,775.021179 
	C383.388092,775.732910 383.246643,777.009155 383.238953,778.126404 
	C383.170197,788.106262 382.926270,798.127625 384.373657,808.007202 
	C386.183167,820.358215 385.345337,823.279419 399.075043,825.369751 
	C396.175079,827.473389 394.605286,827.669556 390.729126,826.335754 
	C389.469635,825.902466 388.240570,825.380432 386.999512,824.894043 
	C381.375854,822.690247 380.670654,822.920288 380.173767,828.868042 
	C379.765198,833.758728 377.246399,836.481567 373.250275,838.994690 
	C360.375977,847.091187 345.790649,849.036194 331.282928,850.817200 
	C316.696594,852.607849 303.658142,847.554749 293.386230,837.469482 
	C285.395538,829.623962 275.910126,824.721558 266.166870,820.182434 
	C246.963013,811.236084 229.319000,799.525574 210.637970,789.666931 
	C203.033142,785.653503 198.564941,778.116028 193.989014,771.367981 
	C187.885590,762.367371 181.284439,753.372925 178.702957,742.386108 
	C178.289352,740.625854 177.489334,738.871826 175.917892,737.746765 
	C171.145874,734.330261 170.716537,729.642395 170.690887,724.114929 
	C170.642334,713.656189 169.123276,703.243896 165.613907,693.305603 
	C163.580002,687.545715 164.565552,684.881470 170.342270,682.400146 
	C174.617065,680.564026 179.238907,679.754761 183.391724,677.470337 
	C186.514175,675.752747 187.428497,673.781006 186.019592,670.610718 
	C185.343521,669.089355 184.661362,667.570007 184.023666,666.032471 
	C181.743668,660.535217 182.700287,659.853027 187.789078,656.881042 
	C191.711670,654.590271 196.063889,653.046387 199.692108,650.062256 
	C202.651733,647.628052 207.042557,648.189453 210.517090,646.017944 
	C218.706161,640.900146 228.401321,638.816650 236.587845,633.429932 
	C238.903137,631.906433 242.102859,630.354370 244.742645,629.998657 
	C250.511719,629.221313 249.332733,624.852722 248.342651,622.652039 
	C246.144669,617.766479 244.008850,612.812195 241.572647,608.020630 
	C241.349442,607.581604 240.406281,607.508606 239.396973,607.123230 
	C238.996490,606.980774 238.891586,606.848755 238.841019,606.494263 
	C238.663834,596.701416 233.128189,589.667236 228.081772,582.482727 
	C226.087677,579.643738 224.117081,576.428223 219.874359,575.869324 
	C219.499512,575.451660 219.269501,575.228821 219.026627,575.019287 
	C219.390778,571.882141 216.598206,570.679932 214.819611,569.669189 
	C209.794464,566.813538 204.221634,565.571167 198.320282,566.274231 
	C196.371262,566.506409 194.371292,566.310791 192.062653,566.310791 
	C192.937317,563.780762 194.216385,562.466736 196.745544,562.676941 
	C198.517517,562.824219 199.812836,562.120911 201.056503,560.732910 
	C204.909775,556.432678 209.423141,552.640747 212.763351,547.992554 
	C215.089081,544.756165 213.237976,540.240234 213.509720,536.252075 
	C212.799011,538.963074 212.362137,541.783386 211.330887,544.366394 
	C206.476044,556.526245 194.100327,564.167358 181.271667,563.117676 
	C167.241653,561.969727 156.458450,552.474915 153.409546,538.584656 
	C149.374573,520.202087 159.784790,504.248016 177.681534,500.977112 
	C182.000183,500.187836 183.744675,501.425598 184.274506,505.725189 
	C185.062195,512.117004 186.312119,518.451843 187.845459,524.776855 
	C187.845459,521.716736 187.845459,518.656616 187.845459,515.596436 
	C189.200043,518.336975 191.221252,518.089661 193.797302,517.532715 
	C194.374863,520.463074 194.613007,523.043518 195.347824,525.634216 
	C196.662582,530.269714 194.998276,534.464111 192.433548,539.709351 
	C191.628983,534.050781 191.001389,529.636902 190.220169,524.142578 
	C186.715591,531.502625 189.972351,537.201355 190.809799,543.320190 
	C200.324097,537.839417 201.428421,527.221863 193.988159,517.006836 
	C187.682938,510.938538 195.450211,507.422852 197.073914,502.731232 
	C194.140411,502.166016 193.934036,504.747437 192.626495,505.742157 
	C189.235962,508.321594 185.797714,507.557953 184.769775,503.490601 
	C184.356079,501.853546 185.417557,499.493286 182.882721,498.886719 
	C179.963562,498.188171 176.793259,497.594025 174.025345,498.771637 
	C169.297470,500.783112 164.697830,503.171600 160.266159,505.778778 
	C156.962662,507.722229 155.818787,511.585541 154.149002,514.754150 
	C151.216400,520.319092 148.099548,525.877319 149.112045,532.777832 
	C149.596069,536.076477 149.569122,539.339539 151.486908,542.255127 
	C152.502975,543.799866 152.957169,545.584106 153.051392,547.455566 
	C153.106033,548.540771 152.999695,549.493591 151.735168,549.744080 
	C150.408936,550.006775 149.123795,549.495483 149.102661,548.169434 
	C149.054947,545.175171 147.509705,543.338318 145.321777,541.596619 
	C144.569168,540.997437 144.088043,539.451843 144.223877,538.437866 
	C145.315628,530.288696 143.410645,521.757568 147.549042,513.971680 
	C148.994431,511.252411 150.149719,508.335907 147.554657,505.223999 
	C146.256760,503.667694 147.289154,501.957825 149.470947,501.756561 
	C155.233398,501.224976 160.223007,498.927643 164.806259,495.504852 
	C165.533386,494.961853 166.644119,494.841827 167.602539,494.713623 
	C175.091675,493.711578 181.621201,490.191803 188.134766,486.736084 
	C189.736816,485.886139 191.394318,486.182739 192.841919,485.610840 
	C198.247711,483.475128 204.538818,483.425476 208.918243,478.775940 
	C209.757080,477.885345 210.620285,477.142303 210.567352,475.899719 
	C210.341248,470.590515 210.378586,465.288666 210.450378,459.974487 
	C210.494431,456.714233 207.190857,455.871063 204.621780,455.065002 
	C202.742218,454.475281 200.695755,454.417542 198.355621,454.063416 
	C197.987564,454.004120 198.025803,454.036224 198.025803,454.036224 
M800.565308,475.559631 
	C805.814148,467.397278 801.859314,457.542847 792.571045,455.640015 
	C791.597168,458.828339 791.620422,473.264954 792.811096,474.480743 
	C793.291870,474.971588 794.401001,474.835297 795.029785,474.043427 
	C795.035400,470.655579 794.808044,467.314636 792.748535,464.502625 
	C794.603943,462.735168 796.581970,462.088043 798.597717,461.582275 
	C801.166809,466.208649 798.574646,471.307404 799.420715,476.229675 
	C796.436279,476.709564 792.276917,475.677979 792.797485,481.418274 
	C796.484619,480.812103 798.994568,479.406860 800.565308,475.559631 
M265.011810,265.014404 
	C265.011810,265.014404 264.987579,264.999969 265.272308,265.601837 
	C266.412964,266.797546 267.462952,268.098785 268.710083,269.170563 
	C274.015991,273.730408 281.369263,274.219727 286.066406,270.407074 
	C293.098206,264.699341 294.514008,258.997803 290.722351,251.657150 
	C286.341644,243.176178 276.246429,239.708008 268.900940,244.160492 
	C261.365051,248.728409 259.724884,257.582733 265.011810,265.014404 
M239.634033,739.790466 
	C246.474228,734.656372 251.839066,728.091309 258.449371,721.710449 
	C245.176544,720.445984 234.315887,708.076050 233.084442,694.709412 
	C231.903778,681.893799 243.291306,666.984436 256.814575,662.982300 
	C262.964355,661.162292 268.884979,661.555908 274.856415,663.825195 
	C285.569672,667.896423 291.252014,676.099121 293.677063,687.161804 
	C296.351715,685.474121 297.754181,684.149780 295.279755,681.805786 
	C294.606750,681.168213 294.124481,680.172607 293.888031,679.255371 
	C291.676971,670.678650 284.437988,665.854858 277.952637,662.071289 
	C271.429749,658.265808 263.065338,657.771179 254.918716,660.774780 
	C251.883041,661.893982 250.015564,664.157959 247.435837,665.171875 
	C238.740189,668.589172 234.794724,675.218994 233.317764,683.876343 
	C233.094391,685.185730 233.009308,686.441345 232.024231,687.543823 
	C229.436401,690.440186 228.922134,694.335510 230.571838,697.277710 
	C233.183884,701.935974 232.896973,707.726440 236.602020,711.766235 
	C239.104782,714.495178 241.523392,718.214539 244.685715,719.181458 
	C248.203629,720.256958 250.144485,722.105530 252.951477,725.403320 
	C249.705231,725.662048 249.040176,728.181458 247.001465,729.661865 
	C243.544846,732.172058 239.318924,734.781372 238.510773,740.295471 
	C238.241516,740.679138 237.658676,741.290161 237.748215,741.413635 
	C241.182220,746.149902 244.147888,751.405579 249.604782,754.164551 
	C251.497574,755.121521 253.675293,755.164246 255.450592,753.077759 
	C258.474243,749.523987 261.334930,745.654419 264.976410,742.838928 
	C273.583649,736.184204 280.106049,727.471191 288.186523,720.318665 
	C294.769897,714.491272 299.940002,707.242981 307.367889,702.147827 
	C310.338196,700.110352 311.193085,694.891541 309.045837,691.936584 
	C306.828430,688.884949 304.939484,683.875916 298.772614,685.414490 
	C301.170135,688.618835 304.185913,691.156860 307.124054,693.781860 
	C308.950134,695.413208 308.988983,696.836548 307.000122,698.725464 
	C300.488708,704.909912 294.180084,711.308533 287.818359,717.649719 
	C276.863922,728.568909 265.947693,739.526550 254.958176,750.410217 
	C253.688354,751.667786 252.355499,754.233215 250.114136,751.967834 
	C246.282837,748.095581 241.761765,744.843323 239.634033,739.790466 
M205.620529,431.189972 
	C210.102097,431.408142 213.201508,428.002869 214.665100,421.778198 
	C221.237274,417.942657 220.632401,410.567169 222.642136,404.670074 
	C224.811295,398.305237 223.290497,391.837402 220.493484,385.537506 
	C217.947327,379.802643 214.929367,378.548065 209.599869,382.130432 
	C207.619904,383.461304 205.426483,384.668121 202.961578,384.502228 
	C202.073044,382.911713 203.449524,382.143127 203.623367,381.032318 
	C204.909698,372.812408 202.911865,370.388824 194.615646,370.355377 
	C190.957077,370.340607 187.290695,370.463409 183.641708,370.266724 
	C177.006699,369.909058 171.994583,372.944550 167.319183,377.247375 
	C159.614044,384.338531 156.308105,393.116791 155.885330,403.429443 
	C155.561569,411.326630 157.920853,417.756958 162.809433,424.064911 
	C167.305038,429.865784 171.681030,434.666382 179.509491,434.774963 
	C180.108551,434.783295 180.743454,435.178864 181.290588,435.511383 
	C188.318192,439.782623 200.450287,437.458160 205.620529,431.189972 
M649.012329,761.003357 
	C649.012329,761.003357 648.989258,760.983398 648.689453,761.370850 
	C648.229858,764.783691 650.946045,764.193726 652.835999,764.683350 
	C659.982666,766.535156 665.441406,762.035645 671.395569,759.617188 
	C675.982605,757.753906 679.770569,754.713745 682.724731,750.534790 
	C683.914795,748.851257 682.709412,745.172424 686.343994,745.497559 
	C690.723938,745.889465 693.795471,742.900208 697.455933,741.491211 
	C704.899963,738.625793 705.680481,733.742859 700.105774,728.318787 
	C699.241638,727.477966 697.450439,726.772522 697.563843,725.541443 
	C697.992004,720.893738 694.020935,719.147522 692.039673,716.063965 
	C690.419861,713.542908 685.854553,711.279053 688.994080,706.609802 
	C692.829651,709.607910 696.746826,711.889343 700.704895,712.755371 
	C713.198608,715.488770 725.100525,714.294678 735.017334,704.834351 
	C738.493530,701.518066 740.589111,697.639832 742.512634,693.267700 
	C744.758240,688.163391 746.716614,683.095764 747.685303,677.623413 
	C748.228638,674.554260 745.742920,672.441956 745.275024,669.677734 
	C743.967407,661.953003 739.897278,656.394165 733.480713,651.615295 
	C731.000916,649.768372 727.829651,650.573608 726.361755,648.369324 
	C724.174561,645.084839 721.127014,645.004639 717.991455,645.358948 
	C712.431213,645.987244 707.127197,644.426208 701.322815,648.585754 
	C695.893616,652.476501 689.414673,654.365601 685.375916,660.731750 
	C680.620850,668.227051 677.661072,675.687744 678.124817,684.733154 
	C678.326965,688.677063 679.923462,692.279907 680.347534,697.410217 
	C677.990356,694.730530 675.705200,694.308960 674.373413,691.765320 
	C670.811279,684.962097 665.161499,679.502502 661.563232,672.617065 
	C658.622986,666.990967 651.146606,666.998840 647.578735,670.501892 
	C645.624817,672.420349 643.708801,674.354126 641.016663,675.648926 
	C638.056335,677.072693 637.969177,681.394714 639.524719,683.093506 
	C642.576721,686.426514 644.007446,690.871399 647.450745,693.740051 
	C648.893799,694.942322 649.857971,696.119263 649.248108,697.903320 
	C648.564392,699.903564 646.877563,700.689636 644.863770,700.264038 
	C641.241882,699.498657 638.754761,701.570801 636.729614,703.859558 
	C634.268372,706.641113 631.549194,709.177856 629.152588,711.980530 
	C625.254089,716.539673 623.939514,722.216492 623.288879,728.061951 
	C623.046936,730.235535 624.026611,732.683655 622.157776,734.576965 
	C615.392883,731.622437 609.061340,728.179810 601.468872,729.258118 
	C597.542358,729.815735 593.150208,728.121338 589.649597,730.006104 
	C585.796936,732.080444 581.831482,733.773621 577.803223,735.313171 
	C570.965210,737.926331 564.922546,748.157104 566.343262,755.130676 
	C566.601135,756.396301 567.051270,757.742065 568.353821,757.515930 
	C572.448547,756.805176 574.479858,760.216675 577.499634,761.420349 
	C576.607483,763.902771 574.907288,764.292297 572.700317,764.402527 
	C569.179199,764.578308 565.559021,769.780518 566.761292,772.604004 
	C572.261780,785.521851 582.486328,792.694397 595.668945,796.189697 
	C596.585144,796.432617 597.688293,795.936890 598.623901,796.145874 
	C602.581909,797.029907 604.905640,792.670715 608.190491,792.883728 
	C612.757874,793.179871 616.724915,790.837219 619.424194,788.766968 
	C626.985107,782.968140 633.108826,775.646240 632.790100,764.935913 
	C632.694763,761.732727 631.554993,758.108582 634.089600,755.081360 
	C641.738403,760.509094 641.738403,760.509094 649.012329,761.003357 
M612.946411,172.017654 
	C612.946411,172.017654 613.205444,172.222000 612.985657,172.648514 
	C610.394287,175.149948 614.083618,175.004349 614.394653,175.073853 
	C619.752075,176.271332 624.545776,178.893585 629.584778,180.873947 
	C635.380371,183.151657 638.350098,181.633530 639.681946,175.577881 
	C640.040527,173.947296 640.652527,172.639114 641.733887,171.233612 
	C644.227966,167.992050 642.499084,164.731873 638.715698,163.175217 
	C635.001892,161.647186 631.178589,160.070816 627.719238,158.371567 
	C624.607178,156.842880 621.169312,157.406860 618.566223,155.565475 
	C613.444763,151.942642 607.679260,149.707870 601.873535,147.715927 
	C598.987305,146.725677 596.144531,146.718796 593.522949,144.237823 
	C591.205505,142.044693 587.077637,142.766144 583.964111,143.817215 
	C581.399719,144.682907 582.423340,147.526993 582.316589,149.588943 
	C582.229553,151.269485 582.363281,152.748260 580.281128,153.620346 
	C578.371460,154.420166 578.442200,156.580048 578.255615,158.411514 
	C578.122498,159.718735 578.328064,161.394730 577.606201,162.253952 
	C572.573608,168.243851 572.685425,176.490112 568.361877,182.791992 
	C566.686707,185.233673 566.358337,188.197021 566.161987,191.257645 
	C565.988708,193.957230 562.664551,195.062820 561.816711,198.330872 
	C560.838379,202.101700 559.139343,205.933365 558.678040,210.210770 
	C555.169983,209.218063 555.578796,206.885376 555.772583,205.126007 
	C556.781982,195.962387 554.472717,186.886337 558.060181,177.418930 
	C560.770081,170.267426 560.382263,161.436325 559.852051,153.253372 
	C559.586365,149.154114 559.788208,145.214371 561.840942,141.252716 
	C564.309326,136.488922 562.196594,133.564850 556.818420,133.339676 
	C552.658386,133.165482 548.486816,133.256866 544.320374,133.254150 
	C543.151794,133.253387 541.986023,133.320740 541.031677,134.163742 
	C535.319214,139.209671 532.110107,146.229004 527.773499,152.248734 
	C522.996399,158.879730 516.982483,164.547791 513.220642,172.914383 
	C511.297943,170.248978 509.258148,168.662949 508.977112,166.810135 
	C507.930298,159.909180 501.736267,155.621429 500.777466,148.278885 
	C500.144806,143.434280 494.907990,139.043686 493.651123,133.765228 
	C492.390137,128.469559 489.917786,126.463783 484.713928,127.269989 
	C483.052704,127.527359 482.138580,126.025238 480.903137,125.229614 
	C476.982147,122.704445 470.405029,124.276978 470.325562,127.789001 
	C470.122833,136.744919 470.258026,145.708481 470.258026,154.668991 
	C471.394257,148.234436 472.010071,141.800323 472.652710,135.368896 
	C472.948456,132.409210 472.743408,129.078873 476.683411,128.241989 
	C481.831116,127.148590 488.154785,129.129776 489.863953,132.585144 
	C494.511627,141.981277 498.979706,151.466125 503.543365,160.904022 
	C506.231750,166.463730 508.966522,172.001038 511.930115,178.058838 
	C513.174194,176.607376 513.746338,176.017380 514.231140,175.362701 
	C522.355469,164.391251 530.549622,153.470001 538.532959,142.396713 
	C540.783936,139.274429 543.693359,137.129974 546.993225,135.613113 
	C552.423828,133.116821 558.905884,137.710083 558.345154,143.422928 
	C557.922668,147.727539 557.367737,152.019608 556.975830,156.326721 
	C555.558594,171.902695 554.369141,187.502045 552.729736,203.054199 
	C551.670166,213.105408 550.571716,213.511917 540.832153,210.186874 
	C537.683960,209.112091 535.476562,207.692749 535.860168,203.860107 
	C536.489746,197.571243 536.919312,191.262619 537.479248,184.966446 
	C538.006042,179.043533 538.592346,173.125946 539.279663,165.861816 
	C531.215515,176.916931 524.101746,186.758636 516.882324,196.522217 
	C514.002258,200.417206 509.935486,201.498901 506.545013,199.534714 
	C504.208557,198.181137 503.425140,195.683685 502.339050,193.475250 
	C497.594208,183.827118 492.939880,174.134445 488.252655,164.457962 
	C486.122406,174.658173 485.277527,184.689316 484.160980,194.690140 
	C482.681702,207.940323 483.917480,205.693604 471.970428,204.666031 
	C466.964966,204.235504 465.941681,201.950684 466.488251,197.466644 
	C467.675903,187.723465 468.519196,177.938553 469.526733,168.173111 
	C470.172394,161.915451 469.993347,160.017197 468.311188,156.895264 
	C465.230621,163.962997 466.590881,171.368607 466.305054,178.620056 
	C466.213684,180.938034 466.848846,183.753464 465.769836,185.475479 
	C462.572235,190.578583 463.389923,196.034515 463.391571,201.432770 
	C463.392792,205.385773 465.616302,207.570129 469.619812,207.651733 
	C473.617798,207.733231 477.618530,207.677002 481.618011,207.691757 
	C483.894623,207.700150 485.514618,206.995956 485.637177,204.357376 
	C485.962128,197.359467 484.707367,190.222122 488.436646,183.563431 
	C489.625946,181.439957 488.022430,178.330475 489.552521,175.716064 
	C490.235535,175.910812 491.331421,175.982178 491.395386,176.277191 
	C492.632172,181.984055 497.145599,186.139374 498.533661,191.861176 
	C499.292450,194.988968 500.975433,198.345291 503.250580,200.563965 
	C509.076599,206.245529 516.767883,204.119247 520.537537,196.269180 
	C523.373352,190.363892 527.902588,185.886459 533.413635,180.571823 
	C532.877930,190.137299 534.194519,198.551392 532.562256,206.937286 
	C532.079102,209.419067 532.464783,212.482208 534.714050,213.025589 
	C540.362366,214.390091 546.925476,215.349411 551.834045,212.890533 
	C556.795227,210.405350 555.715271,213.305908 556.249756,215.557770 
	C556.577576,216.938797 555.860229,218.729141 557.695251,219.477066 
	C566.484741,223.059448 575.449646,226.309799 584.421570,229.235062 
	C588.840820,230.675919 593.383606,232.321030 597.015320,234.573395 
	C603.294250,238.467499 610.378845,238.150925 617.214233,241.102814 
	C617.944702,242.164047 616.294861,245.394699 619.652283,245.633102 
	C622.842590,245.859650 624.383362,248.377808 626.173706,250.326096 
	C629.380188,253.815491 634.075928,253.723816 636.807739,249.723450 
	C638.928833,246.617401 640.777283,243.303314 643.111023,240.371445 
	C644.893433,238.132172 647.401245,237.664764 649.147644,240.491135 
	C650.053772,241.957581 651.141296,243.875473 652.363953,244.108521 
	C655.681091,244.740829 655.224731,247.009827 655.254150,249.119995 
	C655.335449,254.952271 655.333069,260.786102 655.314880,266.619171 
	C655.307861,268.866821 656.212585,270.275238 657.779724,272.091736 
	C660.683533,275.457520 664.383606,276.922821 667.901001,279.125580 
	C672.627808,282.085663 675.428711,287.379700 678.334839,292.212891 
	C679.458923,294.082306 680.434021,296.018341 682.763245,296.572662 
	C688.819214,298.013916 693.413269,296.090851 697.221436,290.703796 
	C697.776917,289.917938 698.725464,289.410492 699.489868,288.771545 
	C702.255493,286.459930 705.112854,284.348816 707.557495,281.556763 
	C709.348328,279.511444 711.776062,276.656860 715.703613,277.791351 
	C715.872070,278.426178 716.378357,279.241455 716.151733,279.644867 
	C713.015808,285.225861 714.831726,292.000824 712.756897,297.197845 
	C710.747009,302.231964 710.618042,306.869232 710.249634,311.803864 
	C710.162659,312.968292 709.735718,313.704956 708.737854,314.615601 
	C705.734070,317.356873 705.110962,326.296967 707.768982,328.274902 
	C709.980652,329.920776 711.244507,331.840393 712.301208,334.326935 
	C714.426636,339.328644 719.483826,339.991333 723.506165,336.165436 
	C725.895508,333.892822 728.120911,331.218506 730.939575,329.670807 
	C738.429260,325.558167 743.750793,318.718536 750.928589,314.332886 
	C755.629883,311.460388 758.589172,306.775818 762.984375,303.670258 
	C768.980286,299.433655 774.634460,294.813782 779.556824,289.349426 
	C781.011414,287.734680 781.231812,285.858002 779.188110,284.697235 
	C776.057983,282.919403 774.391052,280.134155 772.599731,277.190704 
	C771.406311,275.229645 769.249451,271.719971 767.288147,272.834930 
	C762.798523,275.387146 757.477722,276.513031 753.774353,280.552612 
	C748.956543,285.807678 743.696167,290.577362 736.951050,293.450623 
	C735.446289,291.125153 735.491150,289.085175 737.083618,287.235535 
	C738.135437,286.013885 738.515930,284.652191 738.632996,283.127075 
	C738.976135,278.656494 739.112061,274.492035 741.089905,269.938354 
	C743.557190,264.257690 740.876770,257.129974 744.471802,250.851166 
	C747.254822,245.990585 742.548340,241.591019 740.900208,237.193939 
	C740.027039,234.864532 737.272949,232.865463 733.626221,233.209412 
	C729.434509,233.604767 726.289001,236.023987 723.168884,238.075226 
	C717.392944,241.872482 712.297668,246.722305 707.019287,251.166443 
	C698.034241,258.731384 688.076721,265.112000 679.769287,273.501099 
	C677.604858,275.686798 675.182861,275.515930 674.971130,271.977997 
	C674.663574,266.838440 674.940430,261.659363 675.076477,256.500000 
	C675.132141,254.389450 676.345886,253.195984 678.515198,252.931015 
	C683.490723,252.323318 688.058167,252.345627 693.077759,249.277191 
	C700.121765,244.971176 704.544800,239.406845 706.331360,232.289230 
	C707.785767,226.494720 707.203796,219.947739 706.360962,213.896515 
	C705.719116,209.287781 700.645935,206.632278 698.894409,202.093430 
	C698.545044,201.188187 696.336182,198.127228 692.999634,199.677612 
	C701.821045,209.267868 709.054871,219.259445 703.592896,232.906174 
	C698.268311,246.209839 687.895996,251.631668 673.804688,250.611206 
	C672.099182,259.886688 674.761536,269.179413 671.704834,278.259888 
	C666.773438,276.842468 663.821045,273.126099 659.859314,271.123169 
	C657.288635,269.823486 656.591003,267.678772 656.670227,264.914154 
	C656.841980,258.918121 656.797791,252.915924 656.847656,246.916275 
	C656.864380,244.900238 656.971130,242.832336 655.094116,241.459595 
	C651.770996,239.029160 648.410645,236.649475 644.871704,234.109146 
	C643.049805,236.305511 641.501160,238.026764 640.113464,239.869247 
	C631.476501,251.336655 631.488525,251.345505 620.429626,242.615997 
	C620.299622,242.513351 620.148376,242.437653 620.007080,242.349289 
	C617.862427,241.008392 617.651489,239.488739 619.174438,237.388947 
	C632.566162,218.924698 645.984070,200.477982 659.171021,181.867935 
	C661.597839,178.443054 663.416504,178.695602 666.404114,180.871735 
	C673.263855,185.868408 680.304688,190.617905 687.309631,195.412735 
	C688.597961,196.294632 689.815063,197.883972 691.991211,196.384506 
	C687.228394,193.515167 683.161926,189.900101 678.600769,186.854111 
	C673.710144,183.588150 668.802673,179.939285 664.119995,176.176788 
	C662.961060,175.245590 661.049805,174.891113 660.539612,176.034927 
	C659.263611,178.895569 656.316284,180.045456 654.824768,183.039871 
	C652.796509,187.112045 650.392212,191.372162 646.863708,194.784500 
	C641.395142,200.073166 637.576782,206.798141 633.662842,213.184799 
	C630.602478,218.178772 625.969788,221.238647 622.318481,227.494217 
	C620.933228,221.917923 617.592346,221.295151 614.411499,219.642532 
	C611.158325,217.952362 607.786011,218.242584 604.895203,216.769485 
	C599.762085,214.153702 594.270752,212.475555 589.087280,210.060623 
	C587.435608,209.291122 584.919800,208.492798 584.985291,206.267746 
	C585.078247,203.104233 586.264832,199.886520 589.015869,198.157059 
	C590.718018,197.086990 592.688599,198.021011 594.823242,199.232834 
	C598.400208,201.263382 602.072998,203.890961 606.631409,203.670578 
	C608.661438,203.572479 610.229919,203.890976 611.693787,205.875809 
	C613.734436,208.642715 617.175659,207.706924 620.109863,207.523575 
	C623.052490,207.339706 622.496521,204.852585 622.734009,202.960678 
	C622.869385,201.882401 623.564270,201.355591 624.384521,200.683884 
	C627.757812,197.921387 627.515930,193.748260 624.104187,191.003128 
	C620.162476,187.831558 615.203796,186.780762 610.800537,184.573441 
	C608.126465,183.232956 605.110779,182.433792 601.912903,182.040009 
	C597.661072,181.516418 596.667480,177.304871 598.426514,170.160950 
	C603.097717,171.300476 607.863281,171.776459 612.946411,172.017654 
M815.577209,483.589203 
	C819.447144,478.712952 820.057983,460.252136 816.433899,457.031219 
	C815.342468,458.317474 816.307617,459.591370 816.533264,460.802307 
	C820.412720,481.616852 809.213074,497.146820 788.400452,499.743713 
	C783.609863,500.341431 781.875732,499.004791 781.783142,494.216339 
	C781.622559,485.904968 781.669922,477.589783 781.556030,469.277252 
	C781.495300,464.839844 781.355896,460.393494 780.005005,456.213623 
	C777.731201,455.853973 776.622742,457.209564 775.431946,458.326233 
	C768.903015,464.448639 768.186279,473.681335 773.519165,482.536591 
	C774.429199,484.047607 776.466736,485.630646 774.998108,487.381531 
	C772.597046,490.244049 770.654663,494.428925 766.730591,494.813141 
	C763.261292,495.152832 762.027588,491.149109 760.361084,488.524078 
	C759.915527,487.822266 759.467896,487.112030 759.119019,486.360291 
	C757.646484,483.187836 757.484924,480.845947 761.123718,478.418915 
	C769.017212,473.154144 768.969727,463.481140 761.444397,457.955231 
	C759.480408,456.513092 759.089172,454.837799 760.015869,452.751190 
	C761.452209,449.516785 763.362061,446.667572 766.321411,444.549896 
	C768.630920,442.897278 770.757202,440.988617 773.301025,438.920471 
	C770.967651,438.271454 769.126160,437.789520 767.815735,438.953430 
	C762.025085,444.096771 755.618835,449.733917 754.678162,457.358765 
	C753.327637,468.305847 752.290405,479.809540 757.625244,490.306000 
	C759.044617,493.098572 761.468140,495.538269 763.873840,497.630219 
	C766.573486,499.977661 775.662048,494.823151 776.454102,490.279938 
	C777.065369,486.773499 778.175110,482.434601 775.555603,479.817749 
	C774.186584,478.450226 773.837097,477.434814 773.776428,476.027252 
	C773.640503,472.868805 773.871887,469.693329 773.707642,466.537598 
	C773.548584,463.479614 774.892578,462.475677 778.096619,463.045502 
	C778.096619,466.279572 778.096619,469.568115 778.096619,472.856628 
	C778.394409,472.862579 778.692200,472.868500 778.989990,472.874451 
	C778.989990,469.652496 778.989990,466.430542 778.989990,463.208557 
	C779.440918,463.212158 779.891846,463.215729 780.342773,463.219299 
	C780.342773,474.336700 780.428223,485.455170 780.292358,496.570953 
	C780.249817,500.051361 780.972351,501.815460 785.029663,501.474640 
	C790.171753,501.042603 795.038940,501.802612 800.321411,499.186279 
	C805.193665,496.773163 808.560242,493.630554 811.856934,489.772156 
	C813.320557,488.059204 816.564392,487.648804 815.577209,483.589203 
M347.737000,759.212952 
	C352.196320,755.382263 354.286499,750.384338 354.641663,744.650085 
	C354.836792,741.500305 354.630890,738.327332 354.661652,735.165344 
	C354.750885,725.989075 349.021240,719.014282 342.850372,714.483459 
	C338.376617,711.198669 334.388092,704.477661 326.911865,705.988831 
	C323.061462,701.612549 317.922852,703.713684 313.306915,703.378235 
	C310.069000,703.142944 308.279144,705.869385 306.744598,708.020386 
	C305.454712,709.828369 306.038483,712.732300 307.940979,713.867554 
	C311.012451,715.700317 310.272827,717.843872 309.827881,720.484253 
	C307.294525,719.286438 305.039429,718.680237 302.861450,717.364075 
	C298.169861,714.528809 295.968719,717.799316 293.128082,721.769531 
	C285.961548,731.785950 285.351776,744.712952 292.265533,755.139709 
	C295.310852,759.732300 298.590088,763.387146 303.336761,766.591003 
	C309.797821,770.952026 316.849304,771.164001 323.793549,772.580811 
	C326.401398,773.112915 328.425293,770.267334 331.333832,770.605164 
	C335.226776,771.057373 338.420349,769.023621 341.167450,766.565063 
	C343.428192,764.541809 345.329590,762.117065 347.737000,759.212952 
M784.284546,431.276398 
	C769.134583,432.505524 758.283936,425.297821 750.668701,413.082367 
	C742.646057,400.213379 740.485352,385.083740 735.901917,370.897980 
	C735.029480,368.197815 736.268799,366.094269 739.222290,365.156891 
	C741.769470,364.348480 744.233276,363.277405 746.733948,362.322449 
	C744.841248,361.339752 743.190857,361.183197 741.579285,361.367004 
	C734.813721,362.138672 729.914856,368.619781 733.036438,373.002991 
	C734.489319,375.043060 734.669250,377.150909 735.519409,379.166992 
	C737.270325,383.319214 737.054993,388.377106 739.182983,391.738831 
	C742.124695,396.386108 742.283447,401.709290 744.740356,406.505890 
	C748.610474,414.061493 751.711731,422.006409 759.073425,426.335114 
	C762.263367,428.210815 764.752197,432.147461 769.345947,431.703857 
	C773.808228,431.272888 777.721130,431.733093 775.219788,438.906494 
	C783.044556,435.716644 790.291260,437.132477 798.062927,438.130005 
	C796.312805,433.827118 792.213989,435.377991 789.963745,432.172729 
	C796.919678,433.253510 800.672668,428.391510 805.412842,425.264221 
	C798.791504,427.838257 792.369385,430.771881 784.284546,431.276398 
M818.233582,414.327911 
	C818.545288,412.714172 818.437500,410.844360 819.239807,409.530090 
	C823.182983,403.070709 822.348816,396.011353 822.302368,389.000702 
	C822.263184,383.088531 819.388489,377.672363 818.996948,372.055878 
	C818.610657,366.515503 814.522034,362.285278 815.001831,356.763733 
	C815.026978,356.474091 814.830505,355.988739 814.601562,355.879852 
	C811.130798,354.228912 811.776733,351.070648 811.633118,348.139252 
	C811.534119,346.117950 812.552307,343.173401 809.658264,342.662781 
	C806.714966,342.143433 803.066772,340.972382 800.749329,343.611420 
	C799.368347,345.184174 798.130249,345.451416 796.528564,345.327332 
	C791.176147,344.912506 786.203247,347.627441 781.775208,349.287018 
	C777.284912,350.969940 772.267578,351.858856 767.760742,353.613281 
	C763.243713,355.371674 758.345825,358.940094 752.584412,357.559448 
	C751.577393,357.318176 749.700928,357.943298 748.862671,359.610352 
	C750.868164,362.784668 753.307800,360.566772 755.283936,359.978088 
	C771.515320,355.143036 787.708252,350.177856 803.886353,345.166443 
	C806.749084,344.279663 808.192200,345.142761 809.047607,347.947388 
	C812.390442,358.906647 816.002380,369.774963 818.782471,380.912781 
	C821.026855,389.904053 820.878357,398.643494 818.156616,407.450104 
	C817.007629,411.168030 814.560608,414.266876 812.438782,419.075684 
	C814.989868,417.077942 816.388245,415.982849 818.233582,414.327911 
M774.708557,511.344727 
	C769.120789,512.302490 763.890442,514.548279 758.116394,515.144897 
	C753.855713,515.585083 750.228638,518.459595 751.255432,524.112488 
	C751.705444,526.590271 750.994202,528.904480 749.477112,531.154541 
	C747.020447,534.798218 748.382690,537.416321 751.577087,540.190308 
	C755.009766,543.171265 759.794434,543.425842 762.877075,546.765442 
	C765.463562,549.567566 769.168030,550.797302 772.072449,552.965210 
	C774.681152,554.912415 778.070923,554.913452 780.261963,557.417236 
	C784.724854,562.517334 790.979370,565.086487 796.599915,568.535583 
	C797.093689,568.838623 798.265137,569.015747 798.659241,567.698914 
	C798.154419,567.329956 797.648193,566.922729 797.106689,566.569519 
	C783.318542,557.574829 769.538696,548.567505 755.722351,539.616394 
	C753.720215,538.319275 751.554626,537.202820 751.797913,534.378601 
	C752.198975,529.722351 753.184570,525.169067 754.598267,520.712830 
	C755.103760,519.119385 756.319092,518.286316 757.858337,517.933838 
	C762.559998,516.857178 767.281250,515.865234 771.978516,514.769775 
	C779.511841,513.012939 787.031982,511.199585 794.557739,509.410095 
	C789.058472,509.146179 783.304382,506.469238 778.484070,511.132141 
	C777.943970,511.654572 776.554016,511.298523 774.708557,511.344727 
M755.660217,383.341980 
	C756.188049,385.090790 756.687500,386.848785 757.248901,388.586761 
	C759.189331,394.594208 760.851257,400.761047 765.126282,405.653076 
	C766.330566,407.031189 767.490479,409.321503 771.029053,407.768768 
	C767.020874,404.342010 764.232727,400.671631 762.343323,396.413269 
	C760.718140,392.750458 758.878052,389.131500 757.769043,385.308655 
	C756.983887,382.602081 758.146545,380.159058 761.662048,380.720764 
	C765.178650,381.282684 766.248047,376.799713 768.571289,376.973480 
	C774.367737,377.407013 778.752197,372.155487 784.627075,373.618439 
	C785.949402,373.947693 786.949646,372.987427 788.011292,372.004395 
	C790.788147,369.432922 794.358643,370.517761 797.445801,371.053040 
	C800.356079,371.557648 799.126770,374.591705 799.246887,376.566193 
	C799.373657,378.650208 799.997681,380.429230 801.135132,382.133087 
	C804.665527,387.422058 800.825928,402.089111 795.695007,404.645813 
	C792.650208,406.163055 790.303711,408.246094 787.220703,410.688782 
	C798.288452,408.843292 805.583923,399.667938 804.726318,388.709076 
	C804.128601,381.069885 801.255066,373.942383 798.323853,366.334808 
	C784.075073,370.743713 770.160706,375.033386 756.260498,379.368683 
	C754.379150,379.955444 755.033264,381.403137 755.660217,383.341980 
M658.701843,214.166931 
	C657.916565,215.236343 657.226501,216.394501 656.328369,217.358810 
	C653.411987,220.490005 653.253784,223.008286 657.592407,224.980515 
	C658.924377,225.585953 660.010925,226.723343 661.226990,227.593079 
	C665.138855,230.390671 668.878174,233.481659 673.999756,233.903214 
	C679.518311,234.357452 683.102539,231.661819 685.800049,227.182098 
	C688.302002,223.027344 688.156677,219.169174 685.425293,215.088974 
	C681.858765,209.761154 676.039368,207.258301 671.434143,203.253769 
	C669.008240,201.144287 667.378784,201.930084 665.783813,204.270981 
	C663.633789,207.426376 661.350586,210.491058 658.701843,214.166931 
M273.151917,706.742981 
	C280.943939,700.637390 283.352814,691.895691 279.015869,685.463074 
	C274.680847,679.033264 265.647064,677.109314 259.085297,681.218506 
	C250.998154,686.282715 248.200653,695.442017 252.519730,702.714539 
	C256.672791,709.707458 264.755402,711.487183 273.151917,706.742981 
M505.457764,736.140930 
	C502.388519,732.950012 495.525604,732.836304 492.706879,735.928833 
	C491.770721,736.955811 491.072144,738.130249 491.561523,739.530945 
	C492.642273,742.623962 494.382477,745.379089 497.745178,746.128479 
	C500.875641,746.826233 504.260376,746.400940 506.612152,744.141235 
	C509.122467,741.729126 506.271515,739.265564 505.457764,736.140930 
M171.074661,521.328064 
	C165.589981,527.103333 164.552444,533.646667 168.587158,539.871094 
	C170.984497,543.569580 174.453934,545.806458 179.687073,545.329041 
	C178.341675,537.533264 177.104309,530.363464 175.866943,523.193604 
	C175.254608,527.940857 175.270508,532.594299 175.243439,537.247498 
	C175.236679,538.410400 175.217422,539.652771 173.780746,540.096313 
	C172.543045,540.478516 172.176285,539.503357 171.472733,538.770325 
	C167.374817,534.500610 167.520767,528.519714 172.027893,524.330200 
	C173.510147,522.952332 174.495865,521.828186 171.074661,521.328064 
M801.498901,527.658936 
	C803.831238,527.104492 807.121643,529.093689 808.484314,525.187683 
	C804.105835,524.572083 779.849609,529.741211 775.177612,532.211121 
	C776.811951,534.168396 778.535645,535.823181 781.371399,535.607605 
	C782.497559,534.041260 781.979675,530.681458 784.362793,530.983765 
	C790.273193,531.733643 795.060974,527.979065 801.498901,527.658936 
M567.172485,151.330322 
	C565.637329,150.862152 563.719727,149.780655 563.271973,152.372055 
	C562.925903,154.375092 562.141113,157.081436 564.371948,158.251389 
	C566.327148,159.276810 569.134216,159.224579 570.877258,157.702087 
	C572.642395,156.160263 571.166931,154.397583 569.809265,153.094055 
	C569.221985,152.530228 568.485107,152.122192 567.172485,151.330322 
M806.141785,552.414062 
	C808.425049,553.377625 807.695923,556.043457 808.901855,558.080811 
	C810.400574,552.105591 800.123230,542.816284 794.117126,544.324463 
	C797.265686,548.031921 802.048279,549.079773 806.141785,552.414062 
M818.106812,507.237610 
	C818.883850,504.474884 819.229187,501.861328 815.310486,501.424438 
	C812.392151,501.099060 810.964844,502.560425 811.007568,505.592590 
	C815.453552,504.572113 815.453552,504.572113 818.106812,507.237610 
M799.274902,505.360901 
	C798.144409,505.467926 796.689270,505.305176 796.936157,507.074982 
	C797.095398,508.216309 798.153442,508.739441 799.206787,508.470398 
	C801.658386,507.844116 804.064209,507.038452 807.136963,506.109497 
	C804.293213,504.936066 802.134277,505.506470 799.274902,505.360901 
M704.404907,293.512695 
	C704.611450,293.107452 705.040039,292.376373 704.992493,292.343933 
	C703.058899,291.025818 701.304138,292.005005 699.788269,293.090881 
	C698.243042,294.197693 697.883850,295.671936 699.996094,297.209564 
	C701.340942,296.173096 702.095947,294.315308 704.404907,293.512695 
M807.488342,563.183411 
	C807.456543,565.710449 805.259338,568.273621 807.744080,571.600342 
	C808.786072,568.127014 809.326538,565.478210 807.488342,563.183411 
z"/>
<path fill="#000000" opacity="1.000000" stroke="none" 
	d="
M176.566681,331.811951 
	C173.382767,328.778168 169.441971,327.809906 165.953156,326.543396 
	C162.211365,325.184967 157.916580,325.848267 155.826828,330.953522 
	C154.482651,328.956268 154.225433,327.367096 155.600052,326.063751 
	C160.441498,321.473328 159.240936,315.325836 159.931488,309.691772 
	C160.343567,306.329651 157.562149,305.308502 155.216278,304.012238 
	C144.711578,298.207672 144.572876,287.582123 154.890167,280.943390 
	C161.002335,277.010468 168.473419,278.619415 171.931702,285.396210 
	C174.585205,290.596008 179.050644,293.684662 183.182541,297.179779 
	C186.626404,300.092896 191.783707,298.875092 195.164688,295.066925 
	C198.875198,290.887604 201.036606,285.612732 205.244064,281.692444 
	C207.412979,279.671539 209.254883,277.904114 212.264877,277.593567 
	C216.509613,277.155640 219.003616,275.026764 218.878555,270.462158 
	C218.841660,269.115082 218.926086,267.212952 220.049225,266.810699 
	C226.317963,264.565674 227.975204,257.893555 232.610504,253.856781 
	C233.001404,263.037048 240.423752,267.608734 244.800018,274.049133 
	C246.152908,276.040131 248.474396,277.326599 249.249741,280.033630 
	C247.272034,281.856873 245.435867,281.395233 243.394455,280.255188 
	C235.584793,275.893860 227.817856,276.291046 219.671616,279.806702 
	C212.462250,282.918030 206.445190,287.220276 202.785233,294.115875 
	C200.962585,297.549896 198.599930,300.773346 198.153778,305.040253 
	C197.746765,308.932709 194.253052,312.227203 195.371567,316.638916 
	C195.606155,317.564240 195.538940,318.566071 195.650940,320.072723 
	C198.070038,317.861908 196.354721,315.232635 198.089233,312.291046 
	C196.900955,325.531952 199.222900,336.351654 211.367386,342.546783 
	C211.406433,344.775757 209.618713,345.893860 208.174805,345.065613 
	C204.686920,343.064850 200.065536,343.547577 197.314789,340.421844 
	C194.999802,337.791290 191.571503,338.531708 188.873047,336.676056 
	C185.439835,334.315125 180.946518,333.495789 176.566681,331.811951 
z"/>
<path fill="#000000" opacity="1.000000" stroke="none" 
	d="
M218.692169,574.903931 
	C219.269501,575.228821 219.499512,575.451660 220.090729,576.114868 
	C224.070953,579.567017 226.719238,583.320618 229.310059,587.238525 
	C233.377213,593.389038 234.854691,600.732788 238.891586,606.848755 
	C238.891586,606.848755 238.996490,606.980774 239.050873,607.046936 
	C240.389847,612.500854 243.132141,617.288513 245.451279,622.237061 
	C246.883713,625.293518 246.414505,627.152527 243.192688,628.532593 
	C228.833374,634.683289 214.530106,640.964722 200.183365,647.145020 
	C198.923737,647.687622 197.584106,649.131653 196.104996,647.673340 
	C194.821365,646.407837 195.448486,645.031738 195.976593,643.533569 
	C197.712860,638.607849 195.118958,635.764709 190.023407,636.816772 
	C188.201675,637.192932 186.246170,638.680664 184.324463,635.804626 
	C187.003738,632.813416 190.891922,631.746277 194.337387,630.144104 
	C203.536285,625.866333 212.840378,621.814087 222.116379,617.703247 
	C224.318466,616.727356 225.987839,615.547913 224.569717,612.825928 
	C221.362274,606.669617 219.563171,599.817810 214.882004,594.378601 
	C209.117859,587.681030 202.038498,584.941650 193.484711,586.998474 
	C184.193497,589.232666 177.051575,594.047424 174.750092,604.167236 
	C174.206039,606.559509 174.862839,609.694519 171.364517,611.244019 
	C169.012909,607.757568 169.401871,603.881897 170.257339,600.361877 
	C171.626678,594.727173 171.876678,588.738586 174.801300,583.551392 
	C176.183182,581.100525 172.713730,578.498779 175.600952,575.877258 
	C177.009033,574.598816 178.097427,572.973206 179.940521,572.084412 
	C193.271423,565.656189 206.038071,566.983398 218.692169,574.903931 
z"/>
<path fill="#000000" opacity="1.000000" stroke="none" 
	d="
M199.204178,322.205505 
	C197.550232,303.861176 203.891815,291.560089 218.711609,283.755463 
	C235.715347,274.800659 258.513092,286.598206 261.146301,305.714874 
	C263.625214,323.711365 250.333313,341.776855 232.450577,344.716278 
	C218.249191,347.050568 204.446411,337.852295 199.204178,322.205505 
M216.607376,319.727020 
	C223.157455,327.203156 229.600525,329.617523 236.211929,327.073273 
	C243.683197,324.198151 247.811569,315.518311 244.894363,308.818573 
	C241.140274,300.196747 230.912567,295.452881 223.232574,298.771240 
	C214.914337,302.365387 212.124115,310.419464 216.607376,319.727020 
z"/>
<path fill="#000000" opacity="1.000000" stroke="none" 
	d="
M197.966019,453.991516 
	C198.941101,454.575317 199.932083,455.181458 200.935425,455.766388 
	C203.715210,457.386993 208.233307,457.288330 208.964188,460.869476 
	C210.022308,466.053802 209.487061,471.475616 208.040298,476.677002 
	C207.625748,478.167358 206.209854,478.532593 204.983673,478.982788 
	C187.840714,485.276733 170.689896,491.549286 153.536148,497.813751 
	C152.119080,498.331268 150.655975,498.590118 149.166031,498.155151 
	C146.397354,487.279663 150.274750,480.809174 161.596985,476.922455 
	C170.038177,474.024719 178.399155,470.893280 187.962753,467.445221 
	C177.968552,462.482697 169.101837,458.082275 160.237366,453.677307 
	C156.662903,451.901093 153.877060,449.739075 156.350800,445.224243 
	C150.990967,443.384827 150.250320,440.600342 153.223373,433.223053 
	C167.933319,440.100800 182.627121,446.971008 197.673370,453.938721 
	C198.025803,454.036224 197.987564,454.004120 197.966019,453.991516 
z"/>
<path fill="#000000" opacity="1.000000" stroke="none" 
	d="
M311.301514,240.781738 
	C300.368835,230.915405 299.343781,218.019684 302.837402,207.648529 
	C307.057159,195.121796 321.030090,185.964752 333.850800,186.378311 
	C345.390594,186.750549 353.944122,192.519012 359.389465,202.834457 
	C361.196777,206.258163 359.106995,207.752136 356.699860,209.153580 
	C346.489716,215.097961 336.251099,220.993347 326.028107,226.915680 
	C325.336884,227.316132 324.688873,227.791153 323.772430,228.395126 
	C326.110413,232.029282 329.664703,232.693176 333.955109,233.346695 
	C331.140289,237.994476 320.412903,234.968796 324.231720,244.308853 
	C318.904877,246.078644 315.133759,243.940277 311.301514,240.781738 
M326.800293,213.830002 
	C332.016113,211.801544 336.447144,208.469528 341.436401,205.819000 
	C336.132690,199.828308 329.793854,198.824890 323.734863,202.567841 
	C317.846436,206.205429 315.704895,212.209045 318.246429,218.215500 
	C321.345612,217.871933 323.603058,215.927002 326.004303,214.003571 
	C326.004303,214.003571 326.093597,213.917633 326.800293,213.830002 
z"/>
<path fill="#000000" opacity="1.000000" stroke="none" 
	d="
M736.037292,624.889160 
	C753.259033,635.358215 770.122437,645.719238 787.141968,655.816772 
	C790.463135,657.787170 790.616211,659.339539 788.737366,662.458069 
	C782.041504,673.571472 782.132812,673.651184 771.327209,667.080261 
	C753.276428,656.103577 735.304443,644.994812 717.146912,634.197937 
	C713.435852,631.991272 713.247192,630.110474 715.311707,626.700562 
	C721.717712,616.119629 721.625549,616.067200 731.870300,622.393127 
	C733.144714,623.179993 734.445129,623.924744 736.037292,624.889160 
z"/>
<path fill="#000000" opacity="1.000000" stroke="none" 
	d="
M387.838806,178.825104 
	C383.218689,183.675034 382.501404,188.908264 384.620880,194.785385 
	C387.274353,202.143539 389.744354,209.567795 392.305328,216.959427 
	C393.516632,220.455521 392.674591,222.370773 388.758942,223.524597 
	C378.415222,226.572586 378.092133,226.909500 374.306519,217.085297 
	C369.346954,204.214493 365.057434,191.085419 360.486359,178.065079 
	C359.036804,173.936188 360.727417,171.281830 364.556427,169.792160 
	C366.712250,168.953430 368.949585,168.321198 371.159119,167.624100 
	C374.724304,166.499313 374.300629,170.262238 376.266937,171.755920 
	C378.994141,168.387314 381.909668,165.050980 385.430939,162.400726 
	C390.516083,158.573486 392.819000,159.310394 395.029083,165.183990 
	C397.913788,172.850449 397.907837,172.839737 391.031647,176.656830 
	C390.016205,177.220520 389.087982,177.941315 387.838806,178.825104 
M379.889160,217.369354 
	C379.312317,219.987137 380.941803,220.564194 382.932770,220.328476 
	C384.835510,220.103210 386.766388,219.529510 386.242065,216.771103 
	C384.094788,216.128784 382.222473,216.773895 379.889160,217.369354 
z"/>
<path fill="#000000" opacity="1.000000" stroke="none" 
	d="
M540.718018,754.649780 
	C540.863037,750.992676 541.978516,748.508240 545.751038,748.984436 
	C549.804688,749.496155 555.304199,746.855957 556.871216,753.462402 
	C558.633728,760.893188 560.620483,768.295959 561.863831,775.817688 
	C563.166992,783.701294 564.915466,791.468811 566.835388,799.199280 
	C567.759888,802.921875 566.596680,804.672363 562.929138,804.764343 
	C559.906494,804.840149 556.702515,805.955750 553.982178,803.863342 
	C553.988098,802.566895 554.745544,802.259949 555.524414,801.916199 
	C561.623657,799.224609 561.553894,799.250122 558.893799,793.498535 
	C558.215881,792.032776 558.141235,790.294006 557.739929,788.693054 
	C556.560852,783.988525 552.632202,782.849487 549.238892,786.332031 
	C547.983032,787.620850 547.109375,789.280090 546.046204,790.759460 
	C544.912842,792.336548 543.964844,794.245361 541.133911,793.492737 
	C548.519897,782.887329 542.760437,772.399780 541.073364,761.914368 
	C540.701538,759.603516 540.052368,757.397217 540.718018,754.649780 
M544.276245,759.201416 
	C545.223145,761.305115 546.019714,763.495605 547.166931,765.483704 
	C548.008118,766.941345 549.470886,768.055969 551.308838,767.585938 
	C553.444397,767.039734 553.886841,765.137451 553.880249,763.263550 
	C553.870056,760.373657 552.653687,757.776184 551.244385,755.362061 
	C549.899414,753.058044 547.528564,752.498291 545.173889,753.414062 
	C542.621033,754.406921 543.382568,756.556824 544.276245,759.201416 
z"/>
<path fill="#000000" opacity="1.000000" stroke="none" 
	d="
M145.944519,564.738464 
	C147.318161,560.286926 150.209045,562.321716 152.437958,563.079590 
	C155.848282,564.239197 158.020584,566.640259 157.665817,570.582397 
	C157.466125,572.801392 156.259720,575.066101 157.786209,577.111572 
	C158.361572,577.255493 158.674332,577.391052 158.991928,577.403564 
	C160.638046,577.468262 162.678711,574.843445 163.772491,577.306885 
	C164.672699,579.334412 163.860657,582.181213 162.220230,583.678223 
	C159.036148,586.583984 158.111923,590.599060 156.279282,594.134155 
	C154.822098,596.945007 152.997986,597.109131 151.353836,595.133545 
	C149.307983,592.675171 146.736649,591.482971 143.966476,590.333252 
	C141.660919,589.376221 140.583206,587.441467 142.853836,585.816833 
	C151.155350,579.877014 149.530869,572.677307 145.944519,564.738464 
z"/>
<path fill="#000000" opacity="1.000000" stroke="none" 
	d="
M185.648285,596.826538 
	C184.446777,595.962463 184.360626,594.411804 184.976059,594.098206 
	C188.379272,592.363647 191.177185,589.207886 194.617310,588.235229 
	C197.827362,587.327637 201.256805,587.874695 205.093399,590.235962 
	C211.663925,594.279846 215.954636,598.877686 218.415894,606.103516 
	C219.245041,608.537720 220.176758,611.006470 220.773865,613.532166 
	C221.124023,615.013306 220.912170,616.496704 218.957489,617.049133 
	C209.720459,619.659790 201.074646,623.767761 192.409698,627.789368 
	C190.827286,628.523804 189.730438,628.866211 188.030960,627.024536 
	C192.185562,622.738098 196.837982,619.286316 202.344635,616.982422 
	C203.255035,616.601440 204.296707,616.546936 205.239182,616.227844 
	C208.919601,614.981384 214.789474,615.481873 214.059372,609.693420 
	C212.982513,601.155640 208.559875,595.421570 201.012924,595.439636 
	C195.931152,595.451843 190.718201,594.007141 185.648285,596.826538 
z"/>
<path fill="#000000" opacity="1.000000" stroke="none" 
	d="
M428.037598,212.159485 
	C421.549255,214.722137 415.309357,212.755463 412.741302,207.657990 
	C410.278168,202.768753 412.169464,197.370209 417.467468,194.012405 
	C420.421814,192.140015 423.542053,192.125641 426.483795,193.639053 
	C429.533936,195.208206 431.209351,197.696381 430.163757,201.447495 
	C429.209259,204.871857 432.989960,209.123840 428.037598,212.159485 
z"/>
<path fill="#000000" opacity="1.000000" stroke="none" 
	d="
M421.817749,809.698364 
	C420.485291,810.298584 419.475494,811.060852 418.091949,810.056274 
	C418.591644,808.051331 418.656799,805.962769 420.404938,804.339539 
	C423.867493,801.124329 423.968750,795.982422 427.031708,792.490051 
	C428.138580,791.228088 429.167755,789.354980 430.985535,790.422607 
	C432.393341,791.249512 434.129608,792.428101 434.127533,794.546631 
	C434.122559,799.708008 434.321991,804.888672 433.934937,810.023621 
	C433.691742,813.249939 431.623291,813.452881 429.531891,811.247498 
	C427.381805,808.980042 425.172028,807.577209 421.817749,809.698364 
z"/>
<path fill="#000000" opacity="1.000000" stroke="none" 
	d="
M160.920456,473.561340 
	C158.782043,475.557709 156.953568,477.156921 153.930817,475.206940 
	C155.558289,472.318268 158.338913,471.106110 160.784500,469.529999 
	C164.689697,467.013092 164.864243,465.364258 161.261490,462.357513 
	C159.486938,460.876526 157.581604,459.495392 155.565033,458.376099 
	C153.235626,457.083130 153.722961,456.029266 155.058655,455.042877 
	C162.692383,458.294220 170.069031,461.436066 177.811829,464.733856 
	C178.753265,466.135010 177.383057,467.881073 177.703049,470.257751 
	C171.609390,468.733307 167.247925,474.509521 160.920456,473.561340 
z"/>
<path fill="#000000" opacity="1.000000" stroke="none" 
	d="
M504.490540,755.169312 
	C509.738861,752.599426 513.230103,754.722595 517.336365,759.138611 
	C510.074982,759.901794 504.040771,761.335266 501.548950,768.153503 
	C497.017242,764.741089 496.765137,763.041687 499.969086,759.583130 
	C501.316193,758.128967 502.759705,756.764160 504.490540,755.169312 
z"/>
<path fill="#000000" opacity="1.000000" stroke="none" 
	d="
M354.281860,225.389618 
	C352.670135,226.092529 351.479309,227.264023 349.497528,226.128021 
	C350.553040,223.113235 350.783325,219.116501 354.701630,218.936813 
	C358.203674,218.776199 362.129333,219.944595 363.432678,224.090530 
	C364.547852,227.637924 362.384064,229.829300 360.357910,231.417740 
	C355.686859,231.113327 360.982056,223.563492 354.281860,225.389618 
z"/>
<path fill="#000000" opacity="1.000000" stroke="none" 
	d="
M181.178101,609.036194 
	C181.874069,613.005005 183.319565,616.679626 179.850571,620.511475 
	C178.303955,616.529968 178.030701,612.838257 176.401321,609.473511 
	C174.668549,605.895447 179.678223,603.338379 178.960831,598.200500 
	C182.661041,602.155823 179.027161,605.890320 181.178101,609.036194 
z"/>
<path fill="#000000" opacity="1.000000" stroke="none" 
	d="
M342.104309,227.390594 
	C339.443024,229.998428 336.827667,229.322357 334.062408,228.475769 
	C335.932953,224.180252 341.570892,220.289917 347.555115,219.160339 
	C346.732208,222.565887 345.370453,225.339890 342.104309,227.390594 
z"/>
<path fill="#000000" opacity="1.000000" stroke="none" 
	d="
M178.799866,569.155579 
	C176.905609,569.303528 176.476395,570.831604 175.449417,571.512390 
	C173.954239,572.503540 172.133774,573.025757 170.328339,572.414368 
	C169.166199,572.020813 169.289825,570.890686 169.513412,569.889282 
	C169.971863,567.835999 170.872025,565.946960 173.206268,565.875977 
	C175.767517,565.798157 178.450424,565.126526 180.897842,566.492554 
	C181.326187,568.117798 180.075333,568.476929 178.799866,569.155579 
z"/>
<path fill="#000000" opacity="1.000000" stroke="none" 
	d="
M159.052109,555.289673 
	C158.705032,558.946472 156.906204,556.848083 155.817276,556.295410 
	C152.888245,554.808655 153.543686,552.827942 155.592087,550.495300 
	C156.108765,552.619324 158.654526,552.838867 159.052109,555.289673 
z"/>
<path fill="#000000" opacity="1.000000" stroke="none" 
	d="
M612.809570,171.925491 
	C608.240723,169.167175 603.336548,167.679153 598.613220,166.010239 
	C598.182678,166.316849 597.786316,166.447235 597.668152,166.705048 
	C591.705811,179.720245 591.694336,179.755630 604.797791,185.135345 
	C610.032043,187.284286 615.292847,189.392227 620.639160,191.235703 
	C623.814392,192.330551 624.790161,193.658447 623.458191,197.085358 
	C619.910889,206.211868 620.007935,206.436279 610.706116,203.123932 
	C604.136169,200.784393 597.703430,198.035294 591.304871,195.249664 
	C588.213806,193.903961 586.600586,194.477539 585.086426,197.624191 
	C579.756775,208.700211 579.642273,208.650345 590.646729,213.092850 
	C598.673523,216.333298 606.676819,219.635513 614.750183,222.755951 
	C617.935730,223.987198 618.536377,225.626221 617.317871,228.865524 
	C613.731506,238.399521 613.850525,238.489395 604.407959,234.741058 
	C591.259033,229.521439 578.128479,224.255341 565.010681,218.957962 
	C563.023926,218.155655 561.148926,217.076752 558.341919,215.691269 
	C567.739136,192.279800 577.059265,169.060333 586.440979,145.687485 
	C592.453125,146.430054 597.190979,149.327377 602.242554,151.211761 
	C613.931091,155.571869 625.492310,160.272217 637.159180,164.692032 
	C639.811890,165.696976 640.531189,167.118774 639.414429,169.624619 
	C639.279907,169.926376 639.251831,170.275543 639.117798,170.577591 
	C634.185608,181.694168 636.952637,180.354813 625.572083,176.526337 
	C621.647644,175.206146 618.090454,172.899704 613.566284,172.230774 
	C613.205444,172.222000 612.946411,172.017654 612.809570,171.925491 
z"/>
<path fill="#000000" opacity="1.000000" stroke="none" 
	d="
M710.955078,274.972260 
	C703.097595,280.414490 697.247437,288.255615 687.521484,290.795074 
	C689.577026,286.249451 688.099121,282.899261 686.028320,279.013397 
	C683.643250,274.538055 687.622375,271.194092 690.657715,268.645081 
	C702.368225,258.810730 714.295715,249.232971 726.209778,239.643326 
	C733.753235,233.571503 733.687439,233.741364 739.980469,240.995392 
	C742.144165,243.489426 743.097107,245.800613 742.385925,249.076462 
	C739.284851,263.361786 736.342285,277.681458 733.306152,291.981049 
	C733.031433,293.275085 732.513184,294.519135 732.084290,295.778290 
	C731.621338,297.137573 730.752014,298.218079 729.263794,298.221649 
	C727.467896,298.225952 727.427185,296.679077 727.147461,295.367279 
	C725.865967,289.356812 724.294373,288.286377 717.513794,289.000214 
	C717.108154,281.991516 719.684998,275.436554 720.848206,267.420288 
	C717.074585,270.291077 714.149597,272.516296 710.955078,274.972260 
z"/>
<path fill="#000000" opacity="1.000000" stroke="none" 
	d="
M729.359497,327.385681 
	C728.045105,328.444611 727.092712,329.434875 725.945435,330.077148 
	C723.019409,331.715332 721.361145,336.732391 716.846436,334.193115 
	C712.057983,331.499908 709.594116,325.105713 710.737671,319.704651 
	C712.931091,320.614685 712.887695,322.912537 713.807312,324.570099 
	C716.077942,328.662506 719.064087,329.129517 721.946289,325.528198 
	C725.133301,321.545807 728.618408,318.356964 733.777771,316.886627 
	C737.817627,315.735352 740.693604,312.520752 743.498901,309.329620 
	C746.237793,306.213898 746.090210,304.396912 742.253845,302.586945 
	C736.286316,299.771606 736.281006,299.348907 741.314880,295.062897 
	C743.953918,292.815918 746.473267,290.333954 750.191040,289.818695 
	C750.909607,289.719086 752.065247,289.039612 752.124573,288.524536 
	C752.507263,285.204376 755.265503,283.873352 757.414062,282.249817 
	C768.172302,274.120728 764.353577,272.969482 774.580200,283.570007 
	C777.724121,286.828979 777.474426,289.113831 773.752930,291.999298 
	C759.813171,302.807343 746.109375,313.919739 732.320618,324.922363 
	C731.409790,325.649170 730.528015,326.412262 729.359497,327.385681 
z"/>
<path fill="#000000" opacity="1.000000" stroke="none" 
	d="
M678.003479,279.993835 
	C679.158875,279.393036 680.649048,278.741577 680.750854,279.950378 
	C680.977722,282.644318 682.177490,285.340149 681.502014,288.215088 
	C675.981750,286.405579 674.721313,283.468658 678.003479,279.993835 
z"/>
<path fill="#000000" opacity="1.000000" stroke="none" 
	d="
M649.026489,761.010620 
	C641.950378,757.270020 635.332153,753.179016 630.999268,745.903259 
	C619.560486,726.695862 629.954346,704.320862 652.137817,700.941101 
	C652.944458,700.818237 653.750366,700.690979 655.165894,700.471252 
	C652.279724,694.815002 648.487061,690.240540 645.052063,685.445618 
	C641.325134,680.243225 641.685791,678.336548 647.045959,675.121460 
	C649.589966,673.595520 652.066711,671.957336 654.942688,670.136536 
	C660.124146,674.991821 663.727844,681.206116 667.929504,686.892944 
	C678.207275,700.803589 688.202087,714.922974 698.366211,728.918091 
	C702.320068,734.362244 702.354370,734.508911 696.647400,738.471436 
	C695.553162,739.231201 694.361633,739.875488 693.362610,740.742981 
	C690.661865,743.088318 687.996033,744.750793 685.174500,740.731567 
	C679.984680,754.862732 666.695312,763.596191 649.455688,760.986938 
	C648.989258,760.983398 649.012329,761.003357 649.026489,761.010620 
M644.491577,732.890198 
	C644.980408,733.945557 645.363892,735.066589 645.974976,736.045715 
	C650.570190,743.409119 658.138306,746.476257 664.551025,743.626770 
	C675.074951,738.950439 676.953247,727.798706 668.776245,718.540894 
	C664.206909,713.367554 657.204834,712.076721 651.164551,715.293884 
	C644.947571,718.605286 642.209412,725.265320 644.491577,732.890198 
z"/>
<path fill="#000000" opacity="1.000000" stroke="none" 
	d="
M717.789185,711.126343 
	C706.261841,714.049133 697.029846,710.271729 689.343140,702.514526 
	C681.450317,694.549438 678.923950,684.722839 682.218445,674.008179 
	C686.438049,660.285156 695.251343,651.005005 709.925781,648.508423 
	C721.920410,646.467712 731.622559,650.939819 738.693359,660.408691 
	C745.847900,669.989624 746.760193,680.736389 741.368530,691.456482 
	C736.498413,701.139587 729.351990,708.566528 717.789185,711.126343 
M700.267029,688.134033 
	C708.488770,697.318542 719.191833,697.818481 725.322449,689.304382 
	C729.505676,683.494812 728.581360,675.100098 723.172302,669.774902 
	C717.095703,663.792542 709.175171,662.930054 702.931274,667.570923 
	C696.551636,672.312500 695.457336,679.414978 700.267029,688.134033 
z"/>
<path fill="#000000" opacity="1.000000" stroke="none" 
	d="
M592.588318,747.334534 
	C587.517090,749.341980 583.073059,751.537964 580.979431,756.641418 
	C580.328430,758.228149 579.111450,759.034363 577.379517,758.232178 
	C574.510315,756.903381 571.575806,755.667236 568.862976,754.063721 
	C566.382751,752.597595 567.829224,750.583984 568.744324,748.861206 
	C572.732666,741.352905 579.640442,737.490234 587.027222,734.143250 
	C608.165771,724.565308 631.886658,739.889343 631.161316,762.712891 
	C630.698181,777.285400 618.655212,789.871094 602.800171,792.352356 
	C588.693420,794.559998 575.754395,786.594910 570.620850,772.763855 
	C569.537659,769.845581 570.414612,768.491577 573.040405,767.407776 
	C582.411011,763.539978 591.742249,759.576538 601.081360,755.632629 
	C603.677063,754.536438 606.248474,753.382751 608.829590,752.256042 
	C606.393982,746.871643 602.942078,745.817993 592.588318,747.334534 
M603.516785,778.217834 
	C612.455750,774.884705 616.071533,769.362183 613.482239,762.212585 
	C605.329529,765.390381 597.086609,768.278748 589.286987,772.482056 
	C592.823547,777.948364 595.397888,779.006470 603.516785,778.217834 
z"/>
<path fill="#000000" opacity="1.000000" stroke="none" 
	d="
M590.207886,750.835510 
	C598.849243,749.236572 598.849243,749.236572 601.314819,751.017090 
	C599.483582,754.676575 591.738953,757.572449 584.801636,757.011719 
	C585.982666,754.430847 587.954590,752.711853 590.207886,750.835510 
z"/>
<path fill="#000000" opacity="1.000000" stroke="none" 
	d="
M789.985107,613.036133 
	C779.108521,627.860779 764.420105,628.523804 752.959106,624.140930 
	C748.706909,622.514832 748.466553,620.432800 750.101746,616.591064 
	C754.791077,605.574219 759.121887,594.404663 763.570984,583.286072 
	C763.744751,582.851685 763.684875,582.323730 763.733032,581.847656 
	C758.217712,580.705566 754.676880,582.354736 752.082458,587.288025 
	C755.651611,588.915344 757.301941,583.080566 761.125549,585.062317 
	C757.367554,590.361450 754.936340,596.098816 754.177185,602.498352 
	C754.004211,603.956238 752.562500,604.319519 751.515015,604.246155 
	C749.437988,604.100586 748.612976,602.049988 748.913330,600.636902 
	C749.708740,596.895020 750.065857,592.935730 752.492493,589.616760 
	C750.216553,588.660461 749.563904,590.462280 748.735779,591.797668 
	C746.668518,595.131104 746.490356,598.970886 747.415039,602.451599 
	C748.701782,607.295410 746.650818,609.118347 742.473755,610.135925 
	C740.251892,610.677246 738.121521,611.594360 735.776123,612.401672 
	C733.200562,608.932007 732.258484,605.024658 732.388428,601.089417 
	C732.855713,586.940430 738.119446,575.125793 750.629211,567.609070 
	C761.706055,560.953247 774.936401,562.756042 785.328918,571.771484 
	C794.741272,579.936584 798.017090,593.241333 793.460754,604.957397 
	C792.496155,607.437744 791.397156,609.865784 790.211060,612.638000 
	C790.062195,612.958069 790.009277,613.008667 789.985107,613.036133 
M773.560791,588.468323 
	C770.563477,595.549438 767.566162,602.630554 764.509094,609.852905 
	C771.440308,611.180359 776.495667,608.587646 779.431580,602.775574 
	C782.374756,596.949158 781.680237,591.231140 777.555664,587.208679 
	C775.950073,585.643005 774.525146,584.766479 774.013611,587.984741 
	C774.013611,587.984741 774.033203,587.964539 773.560791,588.468323 
z"/>
<path fill="#000000" opacity="1.000000" stroke="none" 
	d="
M328.582855,708.086304 
	C340.406342,713.341675 349.212830,720.928650 352.323517,733.675476 
	C355.165833,745.322815 350.486481,754.810608 342.413513,762.368103 
	C334.543579,769.735596 324.699158,771.951904 314.102539,768.741394 
	C304.396149,765.800537 296.948853,759.922668 292.652039,750.655701 
	C287.958344,740.532898 289.832642,730.922852 295.831573,721.873901 
	C297.733490,719.005005 299.847565,719.206116 302.576752,720.962219 
	C311.487305,726.695801 320.512909,732.251282 329.524780,737.825928 
	C331.171143,738.844299 332.960876,739.630920 334.715363,740.540527 
	C337.493866,733.340515 333.605286,726.102661 325.237915,722.575439 
	C322.053436,721.233032 318.714600,719.953552 315.097565,720.614258 
	C312.661804,721.059204 311.766998,719.821716 311.537292,717.650635 
	C311.414978,716.494202 311.188995,715.347961 310.990143,714.200500 
	C309.733429,706.947266 310.965546,705.545227 318.489105,705.913025 
	C321.824463,706.076050 325.054443,706.881714 328.582855,708.086304 
M306.203186,745.420532 
	C310.588135,755.748169 322.824432,758.772705 329.518524,750.559204 
	C321.981201,745.922546 314.521423,741.333618 306.711212,736.529053 
	C305.982361,739.829529 305.190704,742.200745 306.203186,745.420532 
z"/>
<path fill="#000000" opacity="1.000000" stroke="none" 
	d="
M314.753906,726.026428 
	C314.003357,719.399414 319.633514,722.581848 320.730835,723.149536 
	C324.378387,725.036987 328.749725,726.164062 331.129059,730.139709 
	C332.081177,731.730652 332.646179,733.049438 331.068024,734.835999 
	C327.068878,732.792236 322.518860,731.591125 319.414856,727.988037 
	C318.149139,726.518738 316.647888,726.329895 314.753906,726.026428 
z"/>
<path fill="#000000" opacity="1.000000" stroke="none" 
	d="
M214.046661,421.638245 
	C211.127853,424.823425 208.252335,427.644501 205.195923,430.743042 
	C195.968842,434.639313 186.834213,436.166321 177.397202,432.416748 
	C164.757446,427.394684 158.706467,417.476196 158.468201,404.525635 
	C158.188309,389.314117 166.961807,376.069000 181.851669,372.578400 
	C187.025558,371.365509 192.048828,371.813263 197.122818,373.171082 
	C200.485992,374.071106 201.740463,375.556976 200.722229,379.247314 
	C197.809692,389.802917 195.214966,400.446747 192.554367,411.070709 
	C192.161224,412.640503 191.186600,414.150848 191.849106,416.162170 
	C194.826996,417.396790 197.214783,415.847443 199.305435,413.990540 
	C205.542633,408.450684 207.205185,401.257599 205.104797,393.562378 
	C204.086700,389.832367 204.666824,388.200317 207.958313,386.511353 
	C216.756958,381.996582 219.029266,382.987183 220.126709,393.034393 
	C221.102158,401.964630 219.879166,410.610138 215.203262,418.528229 
	C214.706528,419.369354 214.455139,420.355377 214.046661,421.638245 
M176.264435,411.993958 
	C177.355743,412.942230 178.274155,414.286346 180.405716,413.579224 
	C182.541595,405.529907 185.266815,397.466553 186.642365,388.837555 
	C180.791107,387.729095 177.401810,390.435730 174.913422,394.406128 
	C171.277756,400.207031 171.298721,406.003021 176.264435,411.993958 
z"/>
<path fill="#000000" opacity="1.000000" stroke="none" 
	d="
M196.540833,405.576843 
	C198.299164,403.032440 197.740265,400.459930 197.591019,398.058960 
	C197.383194,394.715393 199.605011,393.306152 201.945618,393.140106 
	C205.480225,392.889343 203.914642,396.129486 204.281052,397.956329 
	C205.176407,402.420044 201.699265,405.628387 200.677505,409.572937 
	C200.313354,410.978821 197.835281,413.179016 195.868607,411.718414 
	C193.716309,410.119904 194.203369,407.694763 196.540833,405.576843 
z"/>
<path fill="#000000" opacity="1.000000" stroke="none" 
	d="
M672.552551,230.341446 
	C667.395508,228.642441 663.150146,225.947693 659.125610,222.921387 
	C656.624634,221.040726 658.356018,218.614166 659.465881,217.258072 
	C661.503357,214.768433 663.473938,212.364075 664.901672,209.425034 
	C666.353149,206.436844 672.484619,206.499451 675.315857,209.258163 
	C677.406738,211.295502 679.487000,213.357727 681.721680,215.230209 
	C684.867554,217.866241 685.321838,223.364944 682.576965,226.372452 
	C680.818420,228.299347 679.197571,230.352036 677.679504,232.153076 
	C675.583557,231.370316 674.243408,230.869827 672.552551,230.341446 
z"/>
<path fill="#000000" opacity="1.000000" stroke="none" 
	d="
M257.533478,703.682251 
	C250.402756,698.673279 251.110291,692.559509 256.951355,687.493042 
	C259.590027,685.204346 260.876648,681.397949 265.023956,680.672119 
	C270.787018,679.663574 277.341888,685.743347 277.732208,692.652222 
	C278.063019,698.507812 275.408752,704.178772 269.786133,705.752380 
	C265.987396,706.815491 261.240662,708.144043 257.533478,703.682251 
z"/>
<path fill="#000000" opacity="1.000000" stroke="none" 
	d="
M265.022888,265.025116 
	C264.914825,262.545410 264.980469,260.029755 264.644073,257.569031 
	C263.298279,247.723740 269.614990,244.920746 277.506531,245.724121 
	C281.099548,246.089890 285.124634,246.675858 286.906921,250.196136 
	C290.809052,257.903442 290.514832,263.048767 286.719299,267.368073 
	C284.556488,269.829346 277.637512,269.410065 274.719025,269.252991 
	C270.551727,269.028717 269.730957,263.385040 265.182983,264.835907 
	C264.987579,264.999969 265.011810,265.014404 265.022888,265.025116 
z"/>
<path fill="#000000" opacity="1.000000" stroke="none" 
	d="
M219.963745,304.982300 
	C222.918289,302.070343 225.080643,298.481384 229.977264,299.673859 
	C232.207413,300.217010 241.246948,306.170685 242.028839,308.341370 
	C243.656906,312.861145 241.731461,318.623230 238.034470,322.186279 
	C235.689285,324.446503 233.975037,327.211853 230.016281,326.349640 
	C228.413208,326.000519 226.592819,326.474609 226.468872,323.981262 
	C226.423218,323.063019 225.644196,322.697357 224.807938,322.376495 
	C217.353851,319.516327 214.987335,311.388824 219.963745,304.982300 
z"/>
<path fill="#000000" opacity="1.000000" stroke="none" 
	d="
M325.960876,214.047760 
	C323.741150,214.013275 321.020355,215.285004 319.996460,212.107285 
	C319.024292,209.090103 321.578918,208.222733 323.184845,206.368805 
	C326.131775,202.966782 329.493103,203.970596 332.849609,203.795731 
	C333.838959,203.744202 334.920746,204.011826 335.075714,205.290192 
	C335.221558,206.493896 334.246643,206.761429 333.427704,207.375534 
	C330.951935,209.232086 326.912628,209.213348 326.143250,213.569275 
	C326.093597,213.917633 326.004303,214.003571 325.960876,214.047760 
z"/>
<path fill="#000000" opacity="1.000000" stroke="none" 
	d="
M670.716248,725.769531 
	C672.103821,736.809937 667.472778,742.317566 657.646790,741.120422 
	C653.576416,740.624451 649.179260,739.367554 648.582275,733.970520 
	C648.389893,732.231445 645.924133,732.511047 645.878601,730.712585 
	C645.797363,727.507141 644.747925,724.145264 648.373413,721.849792 
	C651.044983,720.158142 652.456970,716.906067 655.813782,715.894958 
	C660.317566,714.538391 666.817139,719.060425 668.908447,723.059509 
	C669.352844,723.909180 669.983643,724.661438 670.716248,725.769531 
z"/>
<path fill="#000000" opacity="1.000000" stroke="none" 
	d="
M726.299194,683.643433 
	C724.177612,688.991821 719.117310,690.730957 715.521545,694.036621 
	C715.139404,694.387939 714.225403,694.278992 713.578430,694.205566 
	C708.002991,693.572388 699.732117,684.450134 699.719482,678.961670 
	C699.702454,671.560303 705.544434,666.722900 713.110840,667.872986 
	C720.782349,669.039124 726.215454,675.343872 726.299194,683.643433 
z"/>
<path fill="#000000" opacity="1.000000" stroke="none" 
	d="
M603.541626,769.391479 
	C605.572021,767.967285 607.806824,766.811401 609.082520,768.866150 
	C610.409241,771.003113 607.748230,771.929321 606.479309,773.339172 
	C603.637512,776.496338 600.629761,778.377319 596.269653,776.829590 
	C595.920959,771.776672 599.549194,770.668091 603.541626,769.391479 
z"/>
<path fill="#000000" opacity="1.000000" stroke="none" 
	d="
M774.003113,587.990417 
	C774.608154,591.696716 778.980347,593.609009 777.904297,598.529419 
	C777.025513,602.547974 775.606018,604.999878 771.470337,606.539124 
	C768.438538,600.029663 776.056519,595.014832 774.026489,588.411377 
	C774.033203,587.964539 774.013611,587.984741 774.003113,587.990417 
z"/>
<path fill="#000000" opacity="1.000000" stroke="none" 
	d="
M310.031189,747.194458 
	C309.065826,745.889648 308.257782,744.889099 307.448334,743.886780 
	C311.064545,741.309509 317.467957,744.287354 322.966797,751.254822 
	C317.365692,754.097595 313.755554,750.876343 310.031189,747.194458 
z"/>
<path fill="#000000" opacity="1.000000" stroke="none" 
	d="
M175.704437,399.373047 
	C175.357315,396.502380 177.591705,395.628082 178.654541,394.046906 
	C179.774185,392.381195 182.323898,392.443024 183.371384,390.279083 
	C179.902679,395.888062 186.033524,404.529541 176.890717,408.259521 
	C174.858459,405.686554 176.043594,402.613770 175.704437,399.373047 
z"/>
</svg>