<svg version="1.1" id="Layer_1" xmlns="http://www.w3.org/2000/svg" xmlns:xlink="http://www.w3.org/1999/xlink" x="0px" y="0px"
	 width="100%" viewBox="0 0 500 500" enable-background="new 0 0 500 500" xml:space="preserve">
<path fill="#000000" opacity="1.000000" stroke="none" 
	d="
M448.000000,501.000000 
	C298.666687,501.000000 149.833405,501.000000 1.000080,501.000000 
	C1.000053,334.333405 1.000053,167.666824 1.000027,1.000169 
	C167.666550,1.000113 334.333099,1.000113 500.999756,1.000057 
	C500.999817,167.666519 500.999817,334.333038 500.999908,500.999756 
	C483.500000,501.000000 466.000000,501.000000 448.000000,501.000000 
M313.468109,116.965401 
	C313.543060,116.758209 313.618011,116.551018 313.692963,116.343826 
	C313.468536,116.539291 313.244141,116.734756 312.945129,117.009254 
	C312.945129,117.009254 313.219879,117.047691 313.468109,116.965401 
M206.481522,104.547577 
	C206.481522,104.547577 206.652206,104.470863 206.652206,104.470863 
	C206.652206,104.470863 206.463669,104.475540 206.481522,104.547577 
M302.872772,118.308701 
	C302.872772,118.308701 302.823700,118.009537 302.823700,118.009537 
	C302.823700,118.009537 302.749054,118.300636 302.872772,118.308701 
M80.494461,161.495728 
	C80.494461,161.495728 80.531303,161.444565 80.494461,161.495728 
M113.863068,180.899811 
	C113.863068,180.899811 113.796272,180.892685 113.863068,180.899811 
M202.612259,102.924568 
	C202.612259,102.924568 202.401047,102.978928 202.401047,102.978928 
	C202.401047,102.978928 202.608154,103.048401 202.612259,102.924568 
M210.647202,104.089249 
	C210.647202,104.089249 210.436020,103.800949 210.436020,103.800949 
	C210.436020,103.800949 210.467285,104.173264 210.647202,104.089249 
M330.027924,115.493217 
	C330.027924,115.493217 329.998840,115.523148 330.027924,115.493217 
M100.950920,179.595001 
	C100.950920,179.595001 101.147247,179.457794 101.147247,179.457794 
	C101.147247,179.457794 100.901772,179.471710 100.950920,179.595001 
M112.520088,183.481552 
	C112.520088,183.481552 112.485397,183.488358 112.520088,183.481552 
z"/>
<path fill="#0B0B0B" opacity="1.000000" stroke="none" 
	d="
M206.472595,104.511559 
	C206.463669,104.475540 206.652206,104.470863 206.652206,104.470863 
	C206.652206,104.470863 206.481522,104.547577 206.472595,104.511559 
z"/>
<path fill="#040404" opacity="1.000000" stroke="none" 
	d="
M313.019714,116.930222 
	C313.244141,116.734756 313.468536,116.539291 313.692932,116.343826 
	C313.618011,116.551018 313.543060,116.758209 313.287872,116.987564 
	C313.107635,117.009720 313.019714,116.930222 313.019714,116.930222 
z"/>
<path fill="#040404" opacity="1.000000" stroke="none" 
	d="
M302.810913,118.304672 
	C302.749054,118.300636 302.823700,118.009537 302.823700,118.009537 
	C302.823700,118.009537 302.872772,118.308701 302.810913,118.304672 
z"/>
<path fill="#080808" opacity="1.000000" stroke="none" 
	d="
M80.512878,161.470154 
	C80.531303,161.444565 80.494461,161.495728 80.512878,161.470154 
z"/>
<path fill="#080808" opacity="1.000000" stroke="none" 
	d="
M113.829666,180.896240 
	C113.796272,180.892685 113.863068,180.899811 113.829666,180.896240 
z"/>
<path fill="#0B0B0B" opacity="1.000000" stroke="none" 
	d="
M202.610199,102.986481 
	C202.608154,103.048401 202.401047,102.978928 202.401047,102.978928 
	C202.401047,102.978928 202.612259,102.924568 202.610199,102.986481 
z"/>
<path fill="#0B0B0B" opacity="1.000000" stroke="none" 
	d="
M210.557251,104.131256 
	C210.467285,104.173264 210.436020,103.800949 210.436020,103.800949 
	C210.436020,103.800949 210.647202,104.089249 210.557251,104.131256 
z"/>
<path fill="#040404" opacity="1.000000" stroke="none" 
	d="
M330.013367,115.508179 
	C329.998840,115.523148 330.027924,115.493217 330.013367,115.508179 
z"/>
<path fill="#080808" opacity="1.000000" stroke="none" 
	d="
M100.926346,179.533356 
	C100.901772,179.471710 101.147247,179.457794 101.147247,179.457794 
	C101.147247,179.457794 100.950920,179.595001 100.926346,179.533356 
z"/>
<path fill="#040404" opacity="1.000000" stroke="none" 
	d="
M313.163757,117.028702 
	C313.219879,117.047691 312.945129,117.009254 312.982422,116.969742 
	C313.019714,116.930222 313.107635,117.009720 313.163757,117.028702 
z"/>
<path fill="#080808" opacity="1.000000" stroke="none" 
	d="
M112.502747,183.484955 
	C112.485397,183.488358 112.520088,183.481552 112.502747,183.484955 
z"/>
</svg>